<svg width="80" height="80" viewBox="0 0 80 80" fill="none" xmlns="http://www.w3.org/2000/svg">
<circle cx="40" cy="40" r="39.5" fill="white" stroke="#B6B6B6"/>
<g clip-path="url(#clip0_104_1714)">
<path d="M24.1216 32.8784H18.3477C17.6034 32.8784 17 33.4817 17 34.226V48.6609C17 49.4052 17.6034 50.0086 18.3477 50.0086H24.1216C24.8659 50.0086 25.4693 49.4052 25.4693 48.6609V34.226C25.4693 33.4817 24.8659 32.8784 24.1216 32.8784ZM49.3827 48.4693C50.127 48.4693 50.7304 47.8659 50.7304 47.1216V44.1388H50.8262C51.5704 44.1388 52.1738 43.5354 52.1738 42.7912C52.1738 42.0469 51.5704 41.4435 50.8262 41.4435H50.7304V34.1302C50.7304 33.8637 50.6514 33.6032 50.5033 33.3816C50.3552 33.16 50.1448 32.9872 49.8986 32.8852C49.6523 32.7832 49.3814 32.7565 49.12 32.8085C48.8586 32.8604 48.6184 32.9887 48.43 33.1772C48.4299 33.1772 44.2223 37.3834 42.2274 39.3768C41.3314 40.2777 40.8176 41.5222 40.8176 42.7912C40.8176 43.5354 41.421 44.1388 42.1652 44.1388H48.0351V47.1216C48.0351 47.8659 48.6384 48.4693 49.3827 48.4693ZM43.9895 41.4435C44.0353 41.3867 44.0841 41.3323 44.1355 41.2805C45.1449 40.2718 46.7235 38.6939 48.035 37.3829V41.4435H43.9895ZM38.4606 47.1216C38.4606 46.3774 37.8572 45.774 37.113 45.774H31.7199C31.7657 45.7171 31.8144 45.6627 31.8658 45.6109C33.9326 43.5453 35.9993 41.4796 38.0658 39.4138C38.191 39.2886 38.2903 39.1401 38.358 38.9765C38.4258 38.813 38.4607 38.6377 38.4607 38.4607V37.739C38.4607 35.006 36.2373 32.7826 33.5044 32.7826C30.7455 32.7826 28.548 35.0174 28.548 37.7375V37.7389C28.548 38.4832 29.1514 39.0858 29.8956 39.0858C30.6399 39.0858 31.2433 38.4817 31.2433 37.7375C31.2433 36.5011 32.2388 35.4779 33.5044 35.4779C34.7511 35.4779 35.7654 36.4922 35.7654 37.739V37.9023C33.8296 39.8375 31.8937 41.7725 29.9577 43.7074C29.0617 44.6083 28.548 45.8528 28.548 47.1216C28.548 47.8659 29.1514 48.4693 29.8956 48.4693H37.1131C37.8572 48.4693 38.4606 47.8659 38.4606 47.1216ZM40 19.6953C46.764 19.6953 52.4633 24.341 54.075 30.6091C54.6347 30.3284 55.2523 30.1825 55.8784 30.183H56.7457C54.9217 22.6289 48.1063 17 40 17C31.8937 17 25.0783 22.6289 23.2544 30.183H24.1216C24.7478 30.1826 25.3654 30.3285 25.9251 30.6091C27.5367 24.341 33.236 19.6953 40 19.6953ZM53.8118 52.134C52.4647 55.2397 49.3691 57.4177 45.774 57.4177H44.0136C43.4493 55.7417 41.8639 54.5308 40.0001 54.5308C37.6651 54.5308 35.7654 56.4304 35.7654 58.7654C35.7654 61.1003 37.6651 63 40 63C41.8638 63 43.4492 61.7891 44.0135 60.1131H45.7739C50.666 60.1131 54.8507 57.0293 56.4883 52.7039H55.8784C55.1237 52.7039 54.417 52.4955 53.8118 52.134ZM61.6523 32.8784H55.8784C55.1341 32.8784 54.5307 33.4817 54.5307 34.226V48.6609C54.5307 49.4052 55.1341 50.0086 55.8784 50.0086H61.6523C62.3966 50.0086 63 49.4052 63 48.6609V34.226C63 33.4817 62.3966 32.8784 61.6523 32.8784Z" fill="#333333"/>
</g>
<defs>
<clipPath id="clip0_104_1714">
<rect width="46" height="46" fill="white" transform="translate(17 17)"/>
</clipPath>
</defs>
</svg>
