<svg width="26" height="26" viewBox="0 0 26 26" fill="none" xmlns="http://www.w3.org/2000/svg">
<path fill-rule="evenodd" clip-rule="evenodd" d="M16.9729 7.58398C16.9729 7.13525 17.3366 6.77148 17.7854 6.77148H23.8327C24.2814 6.77148 24.6452 7.13525 24.6452 7.58398V13.592C24.6452 14.0407 24.2814 14.4045 23.8327 14.4045C23.3839 14.4045 23.0202 14.0407 23.0202 13.592V9.53708L16.373 16.1437C15.865 16.6487 15.4271 17.084 15.0294 17.3857C14.6031 17.7091 14.1295 17.9537 13.5464 17.9536C12.9634 17.9536 12.4898 17.7088 12.0636 17.3853C11.666 17.0836 11.2282 16.6482 10.7203 16.1431L10.4232 15.8477C9.86621 15.2938 9.50508 14.9371 9.20438 14.7089C8.92246 14.495 8.79066 14.4711 8.70338 14.4711C8.6161 14.4712 8.48432 14.4951 8.20256 14.7093C7.90203 14.9377 7.54116 15.2946 6.98456 15.8489L2.73933 20.0764C2.42137 20.393 1.90692 20.3919 1.59029 20.074C1.27365 19.756 1.27473 19.2416 1.5927 18.9249L5.87571 14.6598C6.38371 14.1539 6.82155 13.7178 7.21925 13.4156C7.64554 13.0916 8.11932 12.8463 8.70279 12.8461C9.28626 12.8459 9.76022 13.0908 10.1867 13.4145C10.5847 13.7165 11.0228 14.1522 11.5312 14.6577L11.8283 14.9532C12.3848 15.5066 12.7456 15.8629 13.046 16.0909C13.3277 16.3047 13.4594 16.3286 13.5466 16.3286C13.6339 16.3286 13.7656 16.3048 14.0473 16.0911C14.3478 15.8631 14.7086 15.5068 15.2653 14.9536L21.8626 8.39648H17.7854C17.3366 8.39648 16.9729 8.03272 16.9729 7.58398Z" fill="#A639DF"/>
</svg>
