<svg width="85" height="46" viewBox="0 0 85 46" fill="none" xmlns="http://www.w3.org/2000/svg">
<rect x="0.5" y="0.5" width="84" height="45" rx="22.5" stroke="#B6B6B6"/>
<g clip-path="url(#clip0_104_1687)">
<path d="M31.8384 29.9525L31.7788 29.8722L31.8591 29.8126L49.4371 16.7642L42.7176 15.7935L42.618 15.7791L42.633 15.6796L42.8695 14.1171L42.8844 14.0189L42.9827 14.0331L52.6123 15.4241L52.7119 15.4384L52.6969 15.538L51.2408 25.158L51.226 25.2562L51.1277 25.242L49.5636 25.0161L49.464 25.0017L49.479 24.9021L50.4951 18.1894L32.917 31.2377L32.8367 31.2973L32.7771 31.2171L31.8384 29.9525Z" fill="#383838" stroke="black" stroke-width="0.2"/>
</g>
<defs>
<clipPath id="clip0_104_1687">
<rect width="25" height="25" fill="white" transform="matrix(-0.802954 0.596041 0.596041 0.802954 45.0112 5.58789)"/>
</clipPath>
</defs>
</svg>
