<svg width="80" height="80" viewBox="0 0 80 80" fill="none" xmlns="http://www.w3.org/2000/svg">
<circle cx="40" cy="40" r="39.5" fill="white" stroke="#B6B6B6"/>
<g clip-path="url(#clip0_104_1693)">
<path fill-rule="evenodd" clip-rule="evenodd" d="M29.334 44.007H25.3759C24.8236 44.0061 24.2942 43.7864 23.9035 43.396C23.5129 43.0056 23.2929 42.4762 23.2918 41.9239V37.0108C23.2918 35.8011 22.323 34.9277 21.1334 34.9277C20.581 34.9289 20.0516 35.1488 19.661 35.5394C19.2704 35.93 19.0504 36.4594 19.0493 37.0118V48.0266C19.0493 49.1748 19.9853 50.1107 21.1334 50.1107H58.867C59.4194 50.1096 59.9489 49.8897 60.3395 49.4991C60.7301 49.1085 60.95 48.579 60.9511 48.0266V46.0911C60.95 45.5387 60.7301 45.0092 60.3395 44.6186C59.9489 44.228 59.4194 44.0081 58.867 44.007H55.8279C55.7037 45.2315 54.9949 46.9251 53.557 46.9251C51.7244 46.7617 50.5147 46.3818 48.5537 46.5219C47.241 46.6174 45.9496 46.7925 44.6274 46.8615C41.3866 47.0302 37.9708 47.2923 34.7342 47.1278C34.2281 47.1024 33.6964 47.0642 33.1998 46.9676C31.6983 46.6758 31.9095 45.9733 31.711 44.6967C31.6749 44.4669 31.6395 44.237 31.6049 44.007H29.334Z" fill="#333333"/>
<path d="M24.4463 59.1909C24.4463 59.4077 24.5324 59.6157 24.6858 59.769C24.8391 59.9224 25.0471 60.0085 25.2639 60.0085C25.4808 60.0085 25.6887 59.9224 25.8421 59.769C25.9954 59.6157 26.0815 59.4077 26.0815 59.1909V50.1106C26.0815 49.8937 25.9954 49.6858 25.8421 49.5324C25.6887 49.3791 25.4808 49.293 25.2639 49.293C25.0471 49.293 24.8391 49.3791 24.6858 49.5324C24.5324 49.6858 24.4463 49.8937 24.4463 50.1106V59.1909ZM53.9177 59.1909C53.9177 59.4079 54.0039 59.616 54.1574 59.7694C54.3108 59.9228 54.5189 60.009 54.7359 60.009C54.9529 60.009 55.161 59.9228 55.3144 59.7694C55.4678 59.616 55.554 59.4079 55.554 59.1909V50.1106C55.554 49.8937 55.4679 49.6858 55.3146 49.5324C55.1612 49.3791 54.9533 49.293 54.7364 49.293C54.5196 49.293 54.3116 49.3791 54.1583 49.5324C54.0049 49.6858 53.9188 49.8937 53.9188 50.1106L53.9177 59.1909Z" fill="#333333"/>
<path d="M25.2643 63.0004C26.382 63.0004 27.288 62.0944 27.288 60.9767C27.288 59.8591 26.382 58.9531 25.2643 58.9531C24.1467 58.9531 23.2407 59.8591 23.2407 60.9767C23.2407 62.0944 24.1467 63.0004 25.2643 63.0004Z" fill="#333333"/>
<path d="M54.737 63.0004C55.8546 63.0004 56.7606 62.0944 56.7606 60.9767C56.7606 59.8591 55.8546 58.9531 54.737 58.9531C53.6194 58.9531 52.7134 59.8591 52.7134 60.9767C52.7134 62.0944 53.6194 63.0004 54.737 63.0004Z" fill="#333333"/>
<path d="M25.2644 53.8327C25.0475 53.8327 24.8394 53.9189 24.6859 54.0723C24.5325 54.2257 24.4463 54.4338 24.4463 54.6508C24.4463 54.8678 24.5325 55.0759 24.6859 55.2294C24.8394 55.3828 25.0475 55.469 25.2644 55.469H54.737C54.9539 55.469 55.162 55.3828 55.3155 55.2294C55.4689 55.0759 55.5551 54.8678 55.5551 54.6508C55.5551 54.4338 55.4689 54.2257 55.3155 54.0723C55.162 53.9189 54.9539 53.8327 54.737 53.8327H25.2644ZM58.2865 17V44.0075H56.6513V17H58.2865Z" fill="#333333"/>
<path d="M57.4533 21.1304H50.9781V23.691H49.3418V19.4941H57.4533V21.1304Z" fill="#333333"/>
<path fill-rule="evenodd" clip-rule="evenodd" d="M51.5152 25.5851V23.6113H48.805V25.5851H51.5152ZM48.8369 26.4022H51.4834C52.3928 26.4022 53.1367 27.1471 53.1367 28.0576V28.6603H47.1836V28.0565C47.1836 27.1471 47.9264 26.4022 48.8369 26.4022ZM53.1367 29.4774V31.327H47.1836V29.4774H53.1367ZM53.1367 32.1441V32.7479C53.1367 33.6573 52.3939 34.4012 51.4834 34.4012H48.8369C48.3986 34.3997 47.9788 34.225 47.669 33.915C47.3592 33.605 47.1847 33.185 47.1836 32.7468V32.1441H53.1367Z" fill="#333333"/>
<path d="M28.517 44.0076C30.0859 44.0076 31.3577 42.7358 31.3577 41.1669C31.3577 39.598 30.0859 38.3262 28.517 38.3262C26.9481 38.3262 25.6763 39.598 25.6763 41.1669C25.6763 42.7358 26.9481 44.0076 28.517 44.0076Z" fill="#333333"/>
<path fill-rule="evenodd" clip-rule="evenodd" d="M33.5829 39.1856C36.3366 39.6759 38.756 38.9139 42.8977 39.8011C44.2189 40.0844 47.3344 40.6213 50.45 40.2011C56.4922 39.3395 55.4597 46.1086 53.557 46.1086C48.9304 45.2745 48.4868 45.8433 44.585 46.0449C42.3831 46.1606 33.1733 46.7591 32.6926 45.8804C32.5897 44.2844 31.1433 38.6784 33.584 39.1845L33.5829 39.1856Z" fill="#333333"/>
</g>
<defs>
<clipPath id="clip0_104_1693">
<rect width="46" height="46" fill="white" transform="translate(17 17)"/>
</clipPath>
</defs>
</svg>
