<svg width="80" height="80" viewBox="0 0 80 80" fill="none" xmlns="http://www.w3.org/2000/svg">
<circle cx="40" cy="40" r="39.5" fill="white" stroke="#B6B6B6"/>
<g clip-path="url(#clip0_104_1726)">
<path d="M17.7188 62.2812H28.3294V31.9021H17.7188V62.2812ZM20.8467 37.1125H26.8095V39.1988H20.8467V37.1125ZM20.8467 43.0686H26.8095V45.1549H20.8467V43.0686ZM20.8467 49.0256H26.8095V51.1167H20.8467V49.0256ZM20.8467 54.9826H26.8095V57.0689H20.8467V54.9826ZM51.6706 31.8992V62.2784H62.2812V31.8992H51.6706ZM59.2414 57.0689H53.2758V54.9826H59.2385L59.2414 57.0689ZM59.2414 51.1119H53.2758V49.0256H59.2385L59.2414 51.1119ZM59.2414 45.1549H53.2758V43.0667H59.2385L59.2414 45.1549ZM59.2414 39.1988H53.2758V37.1125H59.2385L59.2414 39.1988ZM27.5647 17.7188H52.4353V22.9053H27.5647V17.7188ZM35.6223 45.8736H39.2812V62.2812H35.6223V45.8736ZM40.7188 45.8736H44.3777V62.2812H40.7188V45.8736Z" fill="#333333"/>
<path d="M29.7671 62.2803H34.185V45.1539C34.185 44.9633 34.2607 44.7805 34.3955 44.6457C34.5303 44.5109 34.7131 44.4352 34.9038 44.4352H45.0966C45.2872 44.4352 45.47 44.5109 45.6048 44.6457C45.7396 44.7805 45.8153 44.9633 45.8153 45.1539V62.2803H50.2333V24.3418H29.7671V62.2803ZM34.8999 30.1704H38.0835V26.9868H41.5393V30.1704H44.7228V33.6261H41.5393V36.8097H38.0835V33.6261H34.8999V30.1704Z" fill="#333333"/>
</g>
<defs>
<clipPath id="clip0_104_1726">
<rect width="46" height="46" fill="white" transform="translate(17 17)"/>
</clipPath>
</defs>
</svg>
