<svg width="55" height="55" viewBox="0 0 55 55" fill="none" xmlns="http://www.w3.org/2000/svg">
<rect x="1" y="1" width="53" height="53" rx="4" fill="white" stroke="#F7ECFC" stroke-width="2"/>
<g clip-path="url(#clip0_104_1651)">
<path d="M41.125 18.497V22.3127H14.875V18.497C14.8846 17.7601 15.1861 17.0571 15.7134 16.5422C16.2406 16.0272 16.9506 15.7424 17.6875 15.7502H19.5625V17.6252C19.5625 18.3711 19.8588 19.0864 20.3863 19.6139C20.9137 20.1413 21.6291 20.4377 22.375 20.4377C23.1209 20.4377 23.8363 20.1413 24.3637 19.6139C24.8912 19.0864 25.1875 18.3711 25.1875 17.6252V15.7502H30.8125V17.6252C30.8125 18.3711 31.1088 19.0864 31.6363 19.6139C32.1637 20.1413 32.8791 20.4377 33.625 20.4377C34.3709 20.4377 35.0863 20.1413 35.6137 19.6139C36.1412 19.0864 36.4375 18.3711 36.4375 17.6252V15.7502H38.3125C39.0494 15.7424 39.7594 16.0272 40.2866 16.5422C40.8139 17.0571 41.1154 17.7601 41.125 18.497ZM14.875 24.1877V39.2533C14.8846 39.9902 15.1861 40.6932 15.7134 41.2082C16.2406 41.7231 16.9506 42.0079 17.6875 42.0002H38.3125C39.0494 42.0079 39.7594 41.7231 40.2866 41.2082C40.8139 40.6932 41.1154 39.9902 41.125 39.2533V24.1877H14.875ZM23.3125 37.3127C23.3118 37.5611 23.2127 37.7991 23.0371 37.9747C22.8614 38.1504 22.6234 38.2494 22.375 38.2502H20.5C20.2516 38.2494 20.0136 38.1504 19.8379 37.9747C19.6623 37.7991 19.5632 37.5611 19.5625 37.3127V35.4377C19.5632 35.1892 19.6623 34.9512 19.8379 34.7756C20.0136 34.5999 20.2516 34.5009 20.5 34.5002H22.375C22.6234 34.5009 22.8614 34.5999 23.0371 34.7756C23.2127 34.9512 23.3118 35.1892 23.3125 35.4377V37.3127ZM23.3125 30.7502C23.3118 30.9986 23.2127 31.2366 23.0371 31.4122C22.8614 31.5879 22.6234 31.6869 22.375 31.6877H20.5C20.2516 31.6869 20.0136 31.5879 19.8379 31.4122C19.6623 31.2366 19.5632 30.9986 19.5625 30.7502V28.8752C19.5632 28.6267 19.6623 28.3887 19.8379 28.2131C20.0136 28.0374 20.2516 27.9384 20.5 27.9377H22.375C22.6234 27.9384 22.8614 28.0374 23.0371 28.2131C23.2127 28.3887 23.3118 28.6267 23.3125 28.8752V30.7502ZM29.875 37.3127C29.8743 37.5611 29.7752 37.7991 29.5996 37.9747C29.4239 38.1504 29.1859 38.2494 28.9375 38.2502H27.0625C26.8141 38.2494 26.5761 38.1504 26.4004 37.9747C26.2248 37.7991 26.1257 37.5611 26.125 37.3127V35.4377C26.1257 35.1892 26.2248 34.9512 26.4004 34.7756C26.5761 34.5999 26.8141 34.5009 27.0625 34.5002H28.9375C29.1859 34.5009 29.4239 34.5999 29.5996 34.7756C29.7752 34.9512 29.8743 35.1892 29.875 35.4377V37.3127ZM29.875 30.7502C29.8743 30.9986 29.7752 31.2366 29.5996 31.4122C29.4239 31.5879 29.1859 31.6869 28.9375 31.6877H27.0625C26.8141 31.6869 26.5761 31.5879 26.4004 31.4122C26.2248 31.2366 26.1257 30.9986 26.125 30.7502V28.8752C26.1257 28.6267 26.2248 28.3887 26.4004 28.2131C26.5761 28.0374 26.8141 27.9384 27.0625 27.9377H28.9375C29.1859 27.9384 29.4239 28.0374 29.5996 28.2131C29.7752 28.3887 29.8743 28.6267 29.875 28.8752V30.7502ZM36.4375 30.7502C36.4368 30.9986 36.3377 31.2366 36.1621 31.4122C35.9864 31.5879 35.7484 31.6869 35.5 31.6877H33.625C33.3766 31.6869 33.1386 31.5879 32.9629 31.4122C32.7873 31.2366 32.6882 30.9986 32.6875 30.7502V28.8752C32.6882 28.6267 32.7873 28.3887 32.9629 28.2131C33.1386 28.0374 33.3766 27.9384 33.625 27.9377H35.5C35.7484 27.9384 35.9864 28.0374 36.1621 28.2131C36.3377 28.3887 36.4368 28.6267 36.4375 28.8752V30.7502Z" fill="#333333"/>
<path d="M23.3125 15.75V17.625C23.3125 17.8736 23.2137 18.1121 23.0379 18.2879C22.8621 18.4637 22.6236 18.5625 22.375 18.5625C22.1264 18.5625 21.8879 18.4637 21.7121 18.2879C21.5363 18.1121 21.4375 17.8736 21.4375 17.625V15.75C21.4375 15.5014 21.5363 15.2629 21.7121 15.0871C21.8879 14.9113 22.1264 14.8125 22.375 14.8125C22.6236 14.8125 22.8621 14.9113 23.0379 15.0871C23.2137 15.2629 23.3125 15.5014 23.3125 15.75ZM34.5625 15.75V17.625C34.5625 17.8736 34.4637 18.1121 34.2879 18.2879C34.1121 18.4637 33.8736 18.5625 33.625 18.5625C33.3764 18.5625 33.1379 18.4637 32.9621 18.2879C32.7863 18.1121 32.6875 17.8736 32.6875 17.625V15.75C32.6875 15.5014 32.7863 15.2629 32.9621 15.0871C33.1379 14.9113 33.3764 14.8125 33.625 14.8125C33.8736 14.8125 34.1121 14.9113 34.2879 15.0871C34.4637 15.2629 34.5625 15.5014 34.5625 15.75Z" fill="#333333"/>
</g>
<defs>
<clipPath id="clip0_104_1651">
<rect width="30" height="30" fill="white" transform="translate(13 12)"/>
</clipPath>
</defs>
</svg>
