<svg width="18" height="19" viewBox="0 0 18 19" fill="none" xmlns="http://www.w3.org/2000/svg">
<g id="vuesax/bold/call-calling">
<g id="call-calling">
<path id="Vector" d="M13.215 8.56172C12.8925 8.56172 12.6375 8.29922 12.6375 7.98422C12.6375 7.70672 12.36 7.12922 11.895 6.62672C11.4375 6.13922 10.935 5.85422 10.515 5.85422C10.1925 5.85422 9.9375 5.59172 9.9375 5.27672C9.9375 4.96172 10.2 4.69922 10.515 4.69922C11.265 4.69922 12.0525 5.10422 12.7425 5.83172C13.3875 6.51422 13.8 7.36172 13.8 7.97672C13.8 8.29922 13.5375 8.56172 13.215 8.56172Z" fill="#333333"/>
<path id="Vector_2" d="M15.9228 8.5625C15.6003 8.5625 15.3453 8.3 15.3453 7.985C15.3453 5.3225 13.1778 3.1625 10.5228 3.1625C10.2003 3.1625 9.94531 2.9 9.94531 2.585C9.94531 2.27 10.2003 2 10.5153 2C13.8153 2 16.5003 4.685 16.5003 7.985C16.5003 8.3 16.2378 8.5625 15.9228 8.5625Z" fill="#333333"/>
<path id="Vector_3" d="M8.2875 11.7125L6.9 13.1C6.6075 13.3925 6.1425 13.3925 5.8425 13.1075C5.76 13.025 5.6775 12.95 5.595 12.8675C4.8225 12.0875 4.125 11.27 3.5025 10.415C2.8875 9.56 2.3925 8.705 2.0325 7.8575C1.68 7.0025 1.5 6.185 1.5 5.405C1.5 4.895 1.59 4.4075 1.77 3.9575C1.95 3.5 2.235 3.08 2.6325 2.705C3.1125 2.2325 3.6375 2 4.1925 2C4.4025 2 4.6125 2.045 4.8 2.135C4.995 2.225 5.1675 2.36 5.3025 2.555L7.0425 5.0075C7.1775 5.195 7.275 5.3675 7.3425 5.5325C7.41 5.69 7.4475 5.8475 7.4475 5.99C7.4475 6.17 7.395 6.35 7.29 6.5225C7.1925 6.695 7.05 6.875 6.87 7.055L6.3 7.6475C6.2175 7.73 6.18 7.8275 6.18 7.9475C6.18 8.0075 6.1875 8.06 6.2025 8.12C6.225 8.18 6.2475 8.225 6.2625 8.27C6.3975 8.5175 6.63 8.84 6.96 9.23C7.2975 9.62 7.6575 10.0175 8.0475 10.415C8.1225 10.49 8.205 10.565 8.28 10.64C8.58 10.9325 8.5875 11.4125 8.2875 11.7125Z" fill="#333333"/>
<path id="Vector_4" d="M16.4777 14.2468C16.4777 14.4568 16.4402 14.6743 16.3652 14.8843C16.3427 14.9443 16.3202 15.0043 16.2902 15.0643C16.1627 15.3343 15.9977 15.5893 15.7802 15.8293C15.4127 16.2343 15.0077 16.5268 14.5502 16.7143C14.5427 16.7143 14.5352 16.7218 14.5277 16.7218C14.0852 16.9018 13.6052 16.9993 13.0877 16.9993C12.3227 16.9993 11.5052 16.8193 10.6427 16.4518C9.78019 16.0843 8.91769 15.5893 8.06269 14.9668C7.7702 14.7493 7.4777 14.5318 7.2002 14.2993L9.65269 11.8468C9.86269 12.0043 10.0502 12.1243 10.2077 12.2068C10.2452 12.2218 10.2902 12.2443 10.3427 12.2668C10.4027 12.2893 10.4627 12.2968 10.5302 12.2968C10.6577 12.2968 10.7552 12.2518 10.8377 12.1693L11.4077 11.6068C11.5952 11.4193 11.7752 11.2768 11.9477 11.1868C12.1202 11.0818 12.2927 11.0293 12.4802 11.0293C12.6227 11.0293 12.7727 11.0593 12.9377 11.1268C13.1027 11.1943 13.2752 11.2918 13.4627 11.4193L15.9452 13.1818C16.1402 13.3168 16.2752 13.4743 16.3577 13.6618C16.4327 13.8493 16.4777 14.0368 16.4777 14.2468Z" fill="#333333"/>
</g>
</g>
</svg>
