<svg width="65" height="65" viewBox="0 0 65 65" fill="none" xmlns="http://www.w3.org/2000/svg">
<circle cx="32.5" cy="32.5" r="31.8981" fill="white" stroke="#CDCBCB" stroke-width="1.2037"/>
<path d="M29.2671 34.7903H25.9304C25.3912 34.7903 25.2227 34.5953 25.2227 34.1078V30.1753C25.2227 29.6553 25.4249 29.4928 25.9304 29.4928H29.2671V26.6328C29.2671 25.3328 29.503 24.0978 30.1771 22.9603C30.8849 21.7903 31.896 21.0103 33.1767 20.5553C34.0193 20.2628 34.8619 20.1328 35.7719 20.1328H39.0749C39.5467 20.1328 39.749 20.3278 39.749 20.7828V24.4878C39.749 24.9428 39.5467 25.1378 39.0749 25.1378C38.1649 25.1378 37.2549 25.1378 36.3449 25.1703C35.4349 25.1703 34.963 25.5928 34.963 26.5028C34.9293 27.4778 34.963 28.4203 34.963 29.4278H38.8727C39.4119 29.4278 39.6141 29.6228 39.6141 30.1428V34.0753C39.6141 34.5953 39.4456 34.7578 38.8727 34.7578H34.963V45.3528C34.963 45.9053 34.7945 46.1003 34.1878 46.1003H29.9749C29.4693 46.1003 29.2671 45.9053 29.2671 45.4178V34.7903Z" fill="#A639DF"/>
</svg>
