<svg width="66" height="65" viewBox="0 0 66 65" fill="none" xmlns="http://www.w3.org/2000/svg">
<circle cx="32.7949" cy="32.5" r="31.8981" fill="white" stroke="#CDCBCB" stroke-width="1.2037"/>
<g clip-path="url(#clip0_112_14194)">
<path d="M41.2419 22.7734C40.8136 22.7734 40.465 23.122 40.465 23.5503C40.465 23.9786 40.8136 24.3272 41.2419 24.3272C41.6703 24.3272 42.0188 23.9787 42.0188 23.5503C42.0188 23.1219 41.6703 22.7734 41.2419 22.7734ZM31.94 25.965C28.1424 25.965 25.0527 29.0546 25.0527 32.8523C25.0527 36.6499 28.1424 39.7396 31.94 39.7396C35.7377 39.7396 38.8273 36.6499 38.8273 32.8523C38.8273 29.0547 35.7377 25.965 31.94 25.965Z" fill="#A639DF"/>
<path d="M39.1671 16.8516H24.7118C19.8747 16.8516 15.9395 20.7868 15.9395 25.6239V40.0793C15.9395 44.9164 19.8747 48.8516 24.7118 48.8516H39.1671C44.0043 48.8516 47.9395 44.9163 47.9395 40.0793V25.6239C47.9395 20.7868 44.0043 16.8516 39.1671 16.8516ZM31.9395 41.6286C27.0998 41.6286 23.1625 37.6912 23.1625 32.8516C23.1625 28.0119 27.0998 24.0747 31.9395 24.0747C36.7791 24.0747 40.7165 28.0119 40.7165 32.8516C40.7165 37.6912 36.7791 41.6286 31.9395 41.6286ZM41.2414 26.2163C39.771 26.2163 38.5748 25.0201 38.5748 23.5497C38.5748 22.0793 39.771 20.883 41.2414 20.883C42.7118 20.883 43.908 22.0792 43.908 23.5496C43.908 25.02 42.7118 26.2163 41.2414 26.2163Z" fill="#A639DF"/>
</g>
<defs>
<clipPath id="clip0_112_14194">
<rect width="32" height="32" fill="white" transform="translate(15.9414 16.8516)"/>
</clipPath>
</defs>
</svg>
