<svg width="66" height="65" viewBox="0 0 66 65" fill="none" xmlns="http://www.w3.org/2000/svg">
<circle cx="33.0938" cy="32.5" r="31.8981" fill="white" stroke="#CDCBCB" stroke-width="1.2037"/>
<path d="M46.6934 46.1016V36.5791C46.6934 31.8991 45.6859 28.3241 40.2259 28.3241C37.5934 28.3241 35.8384 29.7541 35.1234 31.1191H35.0584V28.7466H29.8909V46.1016H35.2859V37.4891C35.2859 35.2141 35.7084 33.0366 38.5034 33.0366C41.2659 33.0366 41.2984 35.6041 41.2984 37.6191V46.0691H46.6934V46.1016ZM21.1159 28.7466H26.5109V46.1016H21.1159V28.7466ZM23.8134 20.1016C22.0909 20.1016 20.6934 21.4991 20.6934 23.2216C20.6934 24.9441 22.0909 26.3741 23.8134 26.3741C25.5359 26.3741 26.9334 24.9441 26.9334 23.2216C26.9334 21.4991 25.5359 20.1016 23.8134 20.1016Z" fill="#A639DF"/>
</svg>
