<svg width="55" height="55" viewBox="0 0 55 55" fill="none" xmlns="http://www.w3.org/2000/svg">
<rect x="1" y="1" width="53" height="53" rx="4" fill="white" stroke="#F7ECFC" stroke-width="2"/>
<path d="M41.4548 18.8713C41.4294 18.5904 41.3253 18.3223 41.1544 18.0978C40.9835 17.8734 40.7528 17.7016 40.4888 17.6023L28.6853 13.1743C28.551 13.1073 28.4074 13.0608 28.2593 13.0363C27.9308 12.9729 27.5905 13.0238 27.2948 13.1803L15.5108 17.6023C15.2467 17.7016 15.016 17.8734 14.8452 18.0978C14.6743 18.3223 14.5702 18.5904 14.5448 18.8713C14.5298 19.0453 13.1348 36.2968 27.1553 42.7543C27.4341 42.9389 27.7671 43.024 28.1003 42.9958C28.3433 42.9808 28.5848 42.9058 28.8008 42.7753C42.8678 36.3328 41.4713 19.0453 41.4548 18.8713ZM35.0843 24.5353L28.6643 31.2478C28.5263 31.3922 28.3609 31.5076 28.1778 31.5871C27.9946 31.6667 27.7975 31.709 27.5978 31.7113H27.5813C27.1835 31.7113 26.802 31.5532 26.5208 31.2718L23.5208 28.2718C23.3775 28.1335 23.2632 27.968 23.1846 27.7849C23.106 27.6019 23.0646 27.4051 23.0629 27.2059C23.0612 27.0068 23.0991 26.8093 23.1745 26.6249C23.25 26.4406 23.3613 26.2731 23.5022 26.1322C23.643 25.9914 23.8105 25.88 23.9948 25.8046C24.1792 25.7292 24.3767 25.6912 24.5759 25.693C24.7751 25.6947 24.9719 25.7361 25.1549 25.8147C25.3379 25.8933 25.5034 26.0076 25.6418 26.1508L27.5573 28.0663L32.9168 22.4623C33.0516 22.3148 33.2145 22.1957 33.396 22.1121C33.5775 22.0284 33.7739 21.9819 33.9736 21.9751C34.1733 21.9684 34.3724 22.0017 34.5591 22.073C34.7458 22.1443 34.9164 22.2521 35.0608 22.3903C35.2052 22.5284 35.3206 22.694 35.4001 22.8773C35.4796 23.0606 35.5217 23.258 35.5239 23.4579C35.5261 23.6577 35.4883 23.8559 35.4128 24.041C35.3374 24.226 35.2256 24.3941 35.0843 24.5353Z" fill="#333333"/>
</svg>
