<svg width="66" height="65" viewBox="0 0 66 65" fill="none" xmlns="http://www.w3.org/2000/svg">
<circle cx="33.3887" cy="32.5" r="31.8981" fill="white" stroke="#CDCBCB" stroke-width="1.2037"/>
<path d="M46.836 24.1421C45.8249 24.5802 44.7801 24.8835 43.6679 25.0184C44.8138 24.3443 45.6901 23.2658 46.0945 21.9513C45.016 22.5917 43.8364 23.0298 42.5893 23.2995C41.5782 22.2209 40.129 21.5469 38.5449 21.5469C35.4779 21.5469 33.0175 24.0409 33.0175 27.0743C33.0175 27.5124 33.0512 27.9169 33.1523 28.3213C28.5686 28.1191 24.5242 25.8947 21.7942 22.558C19.8393 26.0632 22.0301 28.9617 23.4793 29.9391C22.603 29.9391 21.7268 29.6695 20.9853 29.265C20.9853 31.995 22.9064 34.2532 25.4005 34.7587C24.8612 34.9272 23.6479 35.0284 22.9064 34.8598C23.6142 37.0506 25.6701 38.6684 28.063 38.7021C26.1756 40.185 23.4119 41.3646 19.873 40.9939C22.3334 42.578 25.2319 43.488 28.3664 43.488C38.5449 43.488 44.0723 35.0621 44.0723 27.7821C44.0723 27.5461 44.0723 27.3102 44.0386 27.0743C45.1845 26.2317 46.1282 25.2543 46.836 24.1421Z" fill="#A639DF"/>
</svg>
