<svg width="80" height="80" viewBox="0 0 80 80" fill="none" xmlns="http://www.w3.org/2000/svg">
<circle cx="40" cy="40" r="39.5" fill="white" stroke="#B6B6B6"/>
<g clip-path="url(#clip0_104_1739)">
<path d="M28.5709 30.6947C28.5407 31.8037 28.7087 33.1522 29.3263 34.6232C28.8387 35.3516 28.426 36.1017 28.0883 36.8713C25.5925 36.7946 23.3722 37.8973 22.6055 38.328C22.0224 37.9261 21.5717 37.3781 21.2623 36.695C21.1451 36.4357 21.0533 36.1656 20.9883 35.8885C22.7968 34.6244 25.3022 34.1923 25.3282 34.1878C25.4508 34.1673 25.5615 34.1025 25.6393 34.0056C25.7171 33.9087 25.7565 33.7865 25.7499 33.6625C25.7433 33.5384 25.6912 33.4212 25.6036 33.3331C25.516 33.245 25.399 33.1922 25.275 33.1848C23.0765 33.0554 21.6579 32.0267 21.227 31.6689C21.1934 30.244 21.6586 29.1934 21.9481 28.6813C24.0341 29.7679 26.2578 30.4438 28.5709 30.6947ZM43.2883 20.2178C43.3054 20.2238 44.8653 20.7748 45.953 22.1339C44.2811 23.2234 41.1105 25.9133 38.3476 31.8091C36.5138 35.7226 34.976 37.8369 33.8877 38.9746C32.2565 37.5503 31.0721 36.038 30.3641 34.4742C30.3632 34.4724 30.3626 34.4706 30.3617 34.4688C29.7403 33.0948 29.4854 31.7002 29.601 30.3112C29.6043 30.2913 29.6061 30.2712 29.6064 30.251C29.6312 29.9766 29.6702 29.7037 29.7232 29.4334C29.9702 28.1729 30.4488 27.3934 30.453 27.3868C30.5083 27.2992 30.5352 27.1967 30.5303 27.0932C30.5253 26.9898 30.4886 26.8904 30.4252 26.8085L28.3351 24.1054L30.1128 22.52L32.2672 25.3648C32.3469 25.47 32.4647 25.5399 32.5953 25.5594C32.7258 25.579 32.8589 25.5466 32.9659 25.4693L35.1679 23.88C35.2678 23.808 35.338 23.7019 35.3653 23.5817C35.3925 23.4616 35.3749 23.3356 35.3158 23.2275L33.7238 20.3192L35.9315 19.304L37.4858 22.2119C37.5461 22.3248 37.6469 22.4107 37.7681 22.4521C37.8892 22.4935 38.0215 22.4874 38.1383 22.435L40.4865 21.382C40.6075 21.3277 40.7023 21.2281 40.7506 21.1046C40.7989 20.9811 40.7967 20.8436 40.7447 20.7217L39.4758 17.7563L41.6242 17L42.994 19.952C43.0225 20.0139 43.0633 20.0694 43.1139 20.1151C43.1645 20.1608 43.2238 20.1958 43.2883 20.2178Z" fill="#333333"/>
<path d="M58.6943 46.7992C59.3271 52.2134 59.0127 56.6433 57.7854 59.6093C56.9962 61.5169 55.147 62.8341 53.074 62.9646C52.6921 62.9889 52.3128 63.0003 51.936 63.0003C46.9698 63.0003 42.4606 60.9975 39.4674 59.2452C36.0351 57.2363 33.1149 54.4497 31.0222 51.1868C27.4425 45.6058 27.6579 41.0726 28.998 37.762C29.0133 37.7335 29.0255 37.7033 29.0349 37.6715C29.311 37.0034 29.6326 36.3859 29.9776 35.8201C30.7437 37.2049 31.8502 38.5391 33.279 39.7996C32.7199 40.2563 32.3728 40.3809 32.2815 40.4075C32.217 40.4255 32.1567 40.4562 32.1042 40.4977C32.0517 40.5392 32.008 40.5908 31.9755 40.6494C31.9431 40.7079 31.9226 40.7723 31.9153 40.8389C31.908 40.9054 31.914 40.9728 31.9329 41.037C31.9518 41.1012 31.9833 41.161 32.0255 41.213C32.0678 41.2649 32.1199 41.3079 32.1789 41.3396C32.2379 41.3712 32.3026 41.3908 32.3693 41.3972C32.4359 41.4036 32.5032 41.3967 32.5671 41.3769C32.8663 41.2888 33.4994 41.0127 34.396 40.1589C35.6272 38.9868 37.3543 36.726 39.3961 32.369C42.0753 26.6513 45.1077 24.0995 46.6767 23.087C46.7856 23.0168 46.9 22.9554 47.0187 22.9035C47.9213 22.5082 48.9995 22.6932 49.705 23.4006C49.7293 23.4252 49.7528 23.45 49.7762 23.4745C50.362 24.0969 50.5731 25.0034 50.3273 25.8407C50.082 26.6735 49.7322 27.4396 49.3115 28.1682C49.2941 28.1923 49.2791 28.218 49.2665 28.2449C48.5637 29.4443 47.6715 30.5455 46.7483 31.6858C45.7226 32.952 44.6744 34.246 43.8892 35.7141C43.8766 35.7341 43.8654 35.755 43.8557 35.7766C43.8554 35.7772 43.8554 35.7775 43.8551 35.7778C43.45 36.5448 43.1169 37.3596 42.8968 38.2431C42.3323 40.5054 43.1067 42.5762 43.8554 44.5785C44.599 46.5664 45.301 48.4438 44.8032 50.5088C44.7854 50.5831 44.7846 50.6606 44.801 50.7352C44.8174 50.8099 44.8504 50.8799 44.8978 50.94C44.9451 51.0001 45.0054 51.0486 45.0742 51.082C45.143 51.1154 45.2184 51.1328 45.2949 51.1329C45.4083 51.1328 45.5184 51.0945 45.6075 51.0243C45.6966 50.9541 45.7594 50.8559 45.786 50.7456C46.3562 48.3801 45.5661 46.2676 44.8022 44.2246C44.0753 42.2812 43.389 40.4458 43.8774 38.4881C44.0478 37.8047 44.2912 37.1668 44.5889 36.5583C46.7696 37.0459 49.6009 38.1048 51.4388 40.4026C51.4862 40.4619 51.5463 40.5098 51.6147 40.5426C51.6832 40.5754 51.7582 40.5924 51.8341 40.5922C51.9292 40.5921 52.0224 40.5651 52.1029 40.5145C52.1834 40.4638 52.248 40.3914 52.2892 40.3056C52.3304 40.2199 52.3465 40.1243 52.3358 40.0297C52.325 39.9352 52.2878 39.8456 52.2284 39.7713C51.2524 38.551 49.935 37.5393 48.3127 36.7637C47.3275 36.2927 46.2467 35.9147 45.0913 35.6373C45.7798 34.4873 46.6429 33.4221 47.5335 32.3225C48.3675 31.2926 49.2174 30.2435 49.9302 29.0962C51.3215 29.7272 53.2008 31.0719 54.906 33.9342C56.7921 37.1013 58.0666 41.4296 58.6943 46.7992ZM52.4368 58.8693C52.4368 58.7352 52.3835 58.6067 52.2887 58.5119C52.1939 58.4171 52.0653 58.3638 51.9313 58.3638C47.9716 58.3638 44.2413 56.6669 41.809 55.2435C39.0053 53.6024 36.6248 51.3342 34.9249 48.6836C34.8891 48.6277 34.8426 48.5794 34.7881 48.5414C34.7336 48.5035 34.6722 48.4767 34.6073 48.4626C34.5425 48.4484 34.4755 48.4472 34.4101 48.459C34.3448 48.4707 34.2824 48.4953 34.2265 48.5312C34.1706 48.567 34.1223 48.6135 34.0844 48.668C34.0465 48.7225 34.0197 48.7839 34.0055 48.8488C33.9914 48.9136 33.9902 48.9806 34.0019 49.046C34.0137 49.1113 34.0382 49.1737 34.0742 49.2296C35.8599 52.0135 38.3578 54.3949 41.2987 56.1157C43.8389 57.6026 47.7449 59.3745 51.9313 59.3745C51.9977 59.3746 52.0634 59.3616 52.1248 59.3363C52.1861 59.3109 52.2419 59.2737 52.2888 59.2268C52.3358 59.1798 52.373 59.1241 52.3984 59.0628C52.4238 59.0014 52.4368 58.9357 52.4368 58.8693Z" fill="#333333"/>
</g>
<defs>
<clipPath id="clip0_104_1739">
<rect width="46" height="46" fill="white" transform="translate(17 17)"/>
</clipPath>
</defs>
</svg>
