<svg width="38" height="39" viewBox="0 0 38 39" fill="none" xmlns="http://www.w3.org/2000/svg">
<circle opacity="0.1" cx="19" cy="19.5" r="19" fill="#B350E6"/>
<path d="M27.75 15.75V13.875C27.75 13.3777 27.5525 12.9008 27.2008 12.5492C26.8492 12.1975 26.3723 12 25.875 12H23.375V11.375C23.375 11.2092 23.3092 11.0503 23.1919 10.9331C23.0747 10.8158 22.9158 10.75 22.75 10.75C22.5842 10.75 22.4253 10.8158 22.3081 10.9331C22.1908 11.0503 22.125 11.2092 22.125 11.375V12H15.875V11.375C15.875 11.2092 15.8092 11.0503 15.6919 10.9331C15.5747 10.8158 15.4158 10.75 15.25 10.75C15.0842 10.75 14.9253 10.8158 14.8081 10.9331C14.6908 11.0503 14.625 11.2092 14.625 11.375V12H12.125C11.6277 12 11.1508 12.1975 10.7992 12.5492C10.4475 12.9008 10.25 13.3777 10.25 13.875V15.75H27.75ZM10.25 17V26.375C10.25 26.8723 10.4475 27.3492 10.7992 27.7008C11.1508 28.0525 11.6277 28.25 12.125 28.25H25.875C26.3723 28.25 26.8492 28.0525 27.2008 27.7008C27.5525 27.3492 27.75 26.8723 27.75 26.375V17H10.25ZM22.5312 20.5994L18.1562 24.3494C18.0367 24.4516 17.8829 24.505 17.7257 24.4989C17.5685 24.4927 17.4194 24.4275 17.3081 24.3162L15.4331 22.4412C15.3193 22.3234 15.2563 22.1655 15.2577 22.0016C15.2591 21.8378 15.3249 21.681 15.4407 21.5651C15.5566 21.4492 15.7134 21.3835 15.8772 21.3821C16.0411 21.3807 16.199 21.4437 16.3169 21.5575L17.7831 23.0238L21.7206 19.6488C21.7826 19.5929 21.8551 19.55 21.9339 19.5226C22.0127 19.4952 22.0962 19.4839 22.1795 19.4893C22.2627 19.4947 22.3441 19.5167 22.4187 19.554C22.4933 19.5913 22.5597 19.6432 22.6139 19.7066C22.6682 19.77 22.7092 19.8436 22.7345 19.9231C22.7599 20.0026 22.769 20.0863 22.7615 20.1694C22.754 20.2525 22.7299 20.3332 22.6907 20.4069C22.6515 20.4805 22.5979 20.5455 22.5331 20.5981L22.5312 20.5994Z" fill="#333333"/>
</svg>
