<svg width="28" height="28" viewBox="0 0 28 28" fill="none" xmlns="http://www.w3.org/2000/svg">
<circle cx="14.0005" cy="14" r="14" fill="white"/>
<path d="M20.9755 14.1719H18.3655C17.6305 14.1719 16.978 14.5769 16.648 15.2369L16.018 16.4819C15.868 16.7819 15.568 16.9694 15.238 16.9694H12.778C12.5455 16.9694 12.2155 16.9169 11.998 16.4819L11.368 15.2444C11.038 14.5919 10.378 14.1794 9.65049 14.1794H7.02549C6.73299 14.1794 6.50049 14.4119 6.50049 14.7044V17.1494C6.50049 19.8719 8.13549 21.4994 10.8655 21.4994H17.1505C19.723 21.4994 21.3055 20.0894 21.5005 17.5844V14.6969C21.5005 14.4119 21.268 14.1719 20.9755 14.1719Z" fill="#A639DF"/>
<path d="M21.5005 10.8575V13.1375C21.3355 13.0775 21.1555 13.0475 20.9755 13.0475H18.3655C17.203 13.0475 16.1605 13.6925 15.643 14.7275L15.0805 15.8375H12.9355L12.373 14.735C11.8555 13.6925 10.813 13.0475 9.65049 13.0475H7.02549C6.84549 13.0475 6.66549 13.0775 6.50049 13.1375V10.8575C6.50049 8.1275 8.12799 6.5 10.858 6.5H17.143C19.873 6.5 21.5005 8.1275 21.5005 10.8575Z" fill="#A639DF"/>
</svg>
