<svg width="478" height="464" viewBox="0 0 478 464" fill="none"  opacity="0.1" xmlns="http://www.w3.org/2000/svg">
<g style="mix-blend-mode:soft-light">
<path d="M187.161 363.281C188.445 360.923 189.73 363.073 190.704 359.327C191.324 356.933 191.479 354.228 190.992 351.765C190.106 347.256 189.043 343.822 188.91 338.723C188.755 332.756 188.158 329.461 184.859 326.305C182.334 323.911 180.541 321.622 178.725 317.772C177.906 316.037 177.131 312.568 175.803 312.43C175.227 314.892 175.006 319.02 174.784 321.448C174.629 323.148 174.718 331.473 176.312 327.276C176.467 331.473 175.847 335.497 176.578 339.659C177.198 343.059 178.238 346.458 179.279 349.58C180.209 352.285 184.084 368.866 187.161 363.559V363.281Z" fill="#D8F0FC"/>
<path d="M0.000823975 40.5142C2.21497 39.1614 8.94589 37.7392 10.2965 37.427C14.4148 36.3864 17.891 34.2011 22.2528 34.7214C20.8579 38.8839 26.1275 36.4558 27.5003 36.1436C30.0908 35.5539 32.5928 34.5133 35.2276 34.097C38.3274 33.6114 41.1393 33.6808 43.8849 31.5649C45.4126 30.4202 46.7854 30.4549 48.8224 30.4549C50.5272 30.4549 52.2764 30.3161 53.9813 30.4549C55.6862 30.5589 57.1918 31.0099 58.8081 30.1427C60.6015 29.2061 61.62 27.5758 63.4577 27.4024C66.5575 27.1249 70.2773 27.784 73.4656 28.0615C74.1299 32.7095 76.9196 31.0793 79.3109 31.6342C81.6136 32.1892 83.3406 32.5014 85.4883 30.9752C86.994 29.9346 88.1674 28.7899 89.7837 28.4083C91.4001 27.9921 92.8392 26.6046 94.3891 26.1883C97.1789 25.3905 100.146 27.8533 103.091 27.1249C106.168 26.3271 108.803 25.2865 112.169 25.2865C114.936 25.2865 119.099 26.8127 121.601 25.2518C121.844 23.4134 121.047 22.6849 120.294 21.6096C118.811 19.3896 118.058 18.7653 120.272 17.4125C121.601 16.6147 123.306 16.4759 124.745 15.8862C127.601 14.7762 131.21 11.4463 134.199 13.1806C135.483 13.9437 136.148 15.8515 137.498 16.5106C138.76 17.135 140.62 17.0309 141.949 17.135C145.292 17.3778 147.728 18.7306 150.805 19.8753C150.562 20.8118 150.407 21.8871 150.628 22.8584L153.728 23.4827C154.458 23.4827 155.123 23.6215 155.831 23.8296C156.208 26.3618 154.237 27.1249 154.503 28.9286C154.68 30.108 156.628 30.4896 157.403 30.4549C159.573 30.3508 161.278 26.9861 163.559 28.3736C163.736 32.0158 161.854 34.1664 160.747 37.1842C160.016 39.1614 159.64 40.8957 159.927 43.4626C160.171 45.7866 161.212 48.8044 162.784 45.8213C163.957 43.6013 162.651 41.4161 162.606 39.2308C162.562 36.8026 163.514 34.548 164.356 32.5708C165.839 29.1368 167.145 24.8009 170.157 24.3846C172.969 24.003 174.74 31.1833 173.589 34.6867C172.991 36.5251 170.865 38.2248 173.456 38.3983C175.138 38.5023 175.98 35.6233 177.308 34.4439C180.032 32.0158 183.884 35.4498 186.785 35.9008C190.482 36.4905 193.294 35.4152 196.505 38.9186C197.9 40.4448 199.162 42.9423 200.667 40.757C201.819 39.0226 201.619 35.4498 203.989 37.427C205.76 38.8839 204.719 41.1732 205.538 43.4626C206.313 45.6826 207.93 45.7173 209.17 47.1741C210.675 48.9085 210.675 49.8451 212.668 49.4982C214.041 49.2901 216.432 48.9085 215.347 45.9601C214.506 43.6013 207.376 46.5498 208.638 40.4448C209.28 37.3576 214.461 35.2764 216.166 34.7561C217.76 34.2358 219.399 34.2705 220.993 33.7849C222.654 33.2992 223.185 32.5361 224.491 31.3567C227.015 29.0327 230.58 30.2121 233.37 31.0446C236.027 31.8771 239.282 32.9177 241.828 34.4439C244.573 36.1089 246.655 40.9651 248.692 44.0523C250.817 47.2782 253.186 49.7063 255.467 52.7588C256.928 54.7706 257.903 55.395 259.674 56.7131C261.024 57.7537 262.154 58.6903 262.176 61.3265C262.176 63.4078 261.113 66.2174 260.493 68.0212C259.386 71.143 258.832 70.8308 256.906 69.5821C253.784 67.5702 251.637 68.0212 249.998 73.4324C249.378 75.4789 250.22 79.4333 248.98 80.9595C248.072 82.0695 246.123 80.6473 245.348 79.2945C244.264 77.352 244.928 75.8605 244.441 73.6752C243.931 71.4552 242.315 69.2699 241.452 67.3621C240.123 64.5525 240.809 64.8646 241.119 61.9509C241.319 59.9737 240.854 57.06 239.99 55.5685C238.972 53.7994 237.71 53.175 236.691 51.3366C236.005 50.0532 233.857 46.8966 232.44 49.2901C231.089 51.5794 236.403 57.8231 236.669 60.7369C237.267 67.2234 232.529 66.5643 229.894 65.5931C228.565 65.1074 226.44 62.9568 225.045 63.7546C223.274 64.7606 223.65 66.9112 225.244 67.3968C226.573 67.7784 228.698 66.3909 230.093 67.4662C231.975 68.923 230.204 70.6574 230.492 73.0855C232.042 73.3977 233.082 71.0043 234.521 71.6286C236.403 72.3918 235.872 75.6177 235.894 77.9764C235.916 85.8157 239.791 80.4739 243.046 81.6186C244.928 82.2776 245.348 84.0814 247.297 83.7345C248.581 83.5264 250.131 83.9773 251.349 83.2142C253.585 81.8614 252.832 80.1964 252.5 77.6989C252.19 75.1321 252.854 73.6058 253.12 71.0736C255.268 70.5187 256.995 76.1727 256.773 78.913C256.375 83.5611 255.223 84.7404 259.076 84.9486C262.508 85.1567 263.571 89.5273 266.228 92.5104C268.53 95.1466 270.899 98.5113 273.534 100.488C274.796 101.425 282.28 99.2744 279.424 105.241C277.608 109.091 274.331 109.681 274.553 115.855C274.752 122.237 278.937 119.116 281.882 118.873C283.343 118.769 285.358 118.769 286.531 120.087C288.148 121.856 287.616 123.764 287.882 126.435C288.303 130.909 289.985 134.863 289.033 139.477C287.86 145.27 283.919 138.367 282.856 145.235L281.882 144.021C281.217 145.547 278.339 144.229 277.254 143.709C274.066 142.183 273.18 137.812 271.209 134.066C270.147 132.054 268.752 131.603 267.578 129.764C266.073 127.406 267.025 125.533 266.25 123.105C265.386 120.468 263.814 122.376 262.375 122.515C260.05 122.723 260.338 121.162 258.832 119.566C256.906 117.52 252.899 121.231 251.194 123.486C249.09 126.261 246.057 128.516 244.33 131.811C243.511 133.407 243.289 136.078 244.573 137.638C245.57 138.853 248.249 136.32 248.647 138.853C248.891 140.24 246.433 142.703 245.791 142.876C244.352 143.258 243.621 141.558 242.514 139.997C241.252 138.228 240.964 137.326 241.097 134.621C241.274 131.152 241.518 131.464 238.994 131.256C239.193 129.036 241.097 128.828 242.116 128.03C243.489 126.989 243.644 125.914 244.64 124.423C246.212 121.96 250.065 119.462 250.397 115.543C250.972 108.675 245.193 115.681 244.042 117.138C241.806 119.983 238.418 122.341 237.001 126.435C236.182 128.793 236.492 131.499 235.739 133.788C235.141 135.557 233.99 136.702 233.525 138.54C232.994 140.622 233.237 144.09 231.244 144.333C228.853 144.611 230.005 141.177 230.248 139.199C228.078 139.754 228.964 137.673 229.362 136.216C229.916 134.066 230.934 132.713 229.695 130.354C227.879 126.92 224.89 129.522 222.742 129.764C216.786 130.528 222.853 124.076 221.923 120.156C221.192 117.069 218.203 110.825 216.166 110.999C215.746 111.033 214.306 111.692 213.996 112.143C213.465 112.872 213.841 113.982 213.31 114.71C211.871 116.757 210.653 114.329 209.015 113.774C206.358 112.941 203.302 116.93 201.132 118.942C198.741 121.197 194.003 123.694 197.612 128.03C200.424 131.429 203.302 127.995 206.69 128.273C208.284 128.377 209.723 129.105 211.339 128.863C212.956 128.62 214.506 127.857 216.166 128.55C217.539 129.14 218.535 130.944 219.842 131.603C221.724 132.574 222.986 130.909 222.676 134.343C222.255 139.269 221.325 143.397 217.716 143.397C214.616 143.397 211.539 142.391 208.439 142.183C206.026 142.044 205.76 142.564 206.07 145.894C206.291 148.218 206.49 150.612 206.513 153.109C206.535 157.896 206.557 163.272 210.365 163.689C213.509 164.036 216.941 163.099 220.218 163.099C221.834 163.099 223.429 163.203 224.912 162.544C226.351 161.885 227.768 160.74 229.318 160.428C230.337 160.22 233.304 159.734 234.145 160.671C234.986 161.538 234.322 162.717 234.92 163.723C235.518 164.695 235.85 164.278 236.647 164.59C240.477 166.186 240.942 162.579 243.799 159.977C245.238 158.694 246.898 158.104 248.249 156.647C249.6 155.225 249.533 153.421 250.53 151.513C251.061 150.473 251.991 150.126 252.323 148.842C252.589 147.837 252.057 146.276 252.323 145.235C253.031 142.287 254.581 143.813 256.375 143.431C259.408 142.738 262.264 142.772 265.453 143.05C268.575 143.258 270.833 145.443 273.579 147.559C274.885 148.565 276.169 150.161 277.63 150.057C279.003 149.987 279.867 148.287 281.306 148.253C284.472 148.183 285.933 153.109 287.838 156.439C288.657 157.861 290.14 159.006 290.782 160.601C291.712 162.787 290.959 165.284 291.513 167.643C292.509 171.944 295.831 172.395 297.358 175.794L298.133 177.321C299.373 179.784 301.122 179.922 302.229 182.454C303.514 185.368 303.846 189.392 304.864 192.479C305.263 193.658 306.458 195.913 306.591 196.988C306.835 198.792 305.971 200.006 305.661 201.567C304.953 205.105 304.909 208.539 305.816 211.904C306.481 214.436 306.281 217.072 306.968 219.431C307.743 222.137 308.473 222.934 308.185 226.368C307.698 232.196 303.514 235.04 301.078 238.856C298.51 242.914 294.967 244.51 293.683 250.06C292.687 254.43 293.196 256.061 290.007 255.749C288.214 255.575 286.398 254.535 284.605 254.535C282.944 254.5 281.616 255.471 279.955 255.471C277.63 255.436 275.35 254.396 273.202 252.974C270.08 250.892 266.56 248.117 263.903 252.731C262.464 255.263 261.822 257.101 259.652 257.795C257.77 258.42 257.039 258.142 255.932 260.848C253.806 266.085 256.685 271.115 255.799 276.665C255.068 281.209 251.681 285.163 250.131 289.048C249.135 291.615 249.688 293.8 249.378 296.645C249.046 299.42 247.873 301.744 247.341 304.345C246.168 310.138 248.802 314.37 249.378 319.677C249.71 322.868 250.397 326.337 250.375 329.598C250.375 332.269 249.71 334.87 249.378 337.506C249.024 340.281 248.78 343.16 247.828 345.623C246.965 347.843 245.371 349.474 244.972 352.075C244.197 356.931 245.083 362.377 243.976 367.129C243.422 369.488 242.293 370.494 241.429 372.332C240.61 374.136 240.212 376.426 239.592 378.403C238.374 382.426 239.813 388.497 236.846 390.231L235.894 393.561C234.234 393.561 233.149 392.798 231.776 391.827C230.005 390.509 229.34 391.306 227.37 391.133C224.27 390.855 221.613 387.109 219.266 384.404C216.543 381.282 214.328 378.646 212.446 374.24C211.672 372.437 211.14 369.627 211.14 367.511C211.118 365.326 212.07 363.14 211.14 361.163C211.17 360.955 211.162 360.758 211.118 360.573C208.86 358.631 204.675 357.486 205.14 351.451C205.339 348.884 206.889 347.6 206.69 344.791C206.535 342.363 205.118 339.935 204.188 338.061C202.948 335.599 201.797 332.893 200.158 331.089C198.719 329.494 197.125 329.008 196.106 326.615C194.047 321.793 195.176 316.521 194.667 311.179C194.313 307.329 194.667 307.606 195.841 304.207C196.527 302.195 196.992 299.836 196.505 297.79C196.217 296.576 195.486 296.922 195.486 295.119C195.464 293.87 196.328 293.488 196.46 292.413C196.77 289.811 195.774 288.008 195.243 285.822C194.645 283.394 194.446 281.521 193.405 279.371C192.32 277.185 190.969 275.486 189.685 273.647C186.94 269.693 184.881 264.975 181.936 261.437C177.175 255.749 175.271 243.99 174.164 235.248C173.876 232.82 172.814 230.462 174.408 229.421C175.736 228.554 177.618 229.698 178.703 230.531C181.382 232.647 184.261 235.457 187.36 235.179C190.77 234.832 192.364 230.531 193.006 225.814C194.335 224.669 194.534 222.726 195.486 220.992C196.394 219.327 197.789 218.529 198.586 216.691C199.361 214.887 199.383 212.39 200.158 210.62C201.309 208.123 202.129 208.054 202.439 204.862C202.704 202.365 202.461 200.18 203.346 197.925C204.298 195.566 205.605 195.636 206.734 194.04C209.635 190.051 209.17 185.125 210.232 180.061C210.742 177.598 212.956 168.996 211.184 167.088C209.9 169.412 209.435 170.695 207.797 169.828C206.026 168.857 205.959 167.539 204.763 170.973C203.413 174.823 202.948 177.598 200.933 181.032C198.918 184.501 197.147 188.525 196.018 192.757C195.331 195.358 195.331 197.751 194.911 200.353C194.468 202.955 193.604 203.267 192.342 205.105C190.349 207.984 187.892 211.904 187.56 216.101C187.228 220.402 188.777 227.132 184.46 226.993C181.648 226.889 178.327 223.42 175.581 222.137C171.729 220.298 170.356 216.483 167.5 212.077C164.953 208.192 162.319 205.452 161.455 200.041C161.234 198.619 161.411 197.994 160.902 196.711C160.37 195.323 159.175 195.15 159.33 193.069C159.462 191.369 161.189 189.669 161.986 188.455C162.983 186.964 163.758 185.229 164.555 183.981C166.06 181.587 166.282 182.871 167.256 185.195C168.74 188.698 173.655 190.467 175.515 186.617C176.733 184.154 175.847 181.969 178.083 180.13C179.655 178.847 181.072 178.951 181.582 175.794C182.224 171.84 182.379 162.613 178.26 166.637C177.043 167.851 176.777 169.967 176.002 171.632C175.094 173.609 173.677 176.037 172.437 177.564C169.98 180.547 166.703 178.327 164.511 181.795C163.271 183.703 163.249 184.189 161.455 184.883C160.171 185.403 158.687 186.235 157.359 186.652C153.905 187.727 150.827 183.842 147.351 184.293C144.694 184.64 142.436 187.38 140.952 190.328C139.956 192.34 140.465 194.526 139.27 196.468C138.428 197.89 136.435 200.076 135.196 199.694C134.908 197.856 134.398 195.774 133.048 196.364C130.789 197.37 131.277 202.4 131.122 204.862C130.767 210.343 127.822 216.379 126.428 221.547C124.988 226.819 124.9 232.751 124.058 238.336C123.439 242.394 119.409 244.579 119.121 242.567C118.789 240.07 116.752 239.029 116.22 236.705C115.335 232.751 116.243 226.091 116.42 221.824C116.597 217.627 114.073 212.91 111.748 210.412C110.486 209.094 109.113 207.88 108.25 205.868C107.497 204.099 107.452 201.949 106.567 200.353C105.593 198.584 104.22 198.445 102.891 197.925C101.496 197.335 100.899 196.503 99.548 195.566C97.666 194.248 95.3412 196.537 94.3891 199.729C93.3042 203.371 92.485 207.013 91.2894 210.62C90.3594 213.395 88.3888 219.119 88.3888 219.119C87.4368 219.778 87.1489 218.217 86.5068 217.211C85.444 215.511 85.0898 213.777 83.9384 215.789C83.5399 216.448 83.562 218.148 83.1635 219.049C82.7649 219.951 82.0343 220.576 81.68 221.512C79.8866 226.195 80.4623 230.184 80.4623 235.457C80.4623 238.474 80.3958 241.111 79.8644 243.955C79.4659 246.21 78.7352 247.181 77.8053 249.158C76.034 252.939 75.5469 256.026 73.5985 260.015L73.2221 262.409C72.7571 263.449 68.9709 269.519 67.9303 268.444C66.8897 267.334 68.4174 264.941 68.7274 263.102C69.0374 261.229 68.8159 258.87 69.1924 256.963C69.5909 255.124 70.543 254.049 71.3843 252.731C72.3807 251.17 72.7128 250.095 73.4656 248.187C74.6613 245.134 76.7868 242.533 77.5175 239.099C78.2481 235.665 77.5617 230.462 76.9639 227.028C75.414 226.889 74.7055 230.323 73.5099 231.606C72.2036 233.028 70.6758 233.896 69.4802 236.15C68.0853 238.821 69.303 249.158 66.2033 242.359C65.2955 240.347 64.587 238.127 63.4577 236.393C62.3507 234.659 60.668 233.549 60.0259 231.225C58.7195 226.577 60.6015 220.402 62.5278 217.003C64.0999 214.263 68.0631 209.753 68.0853 206.076L67.9081 204.862C67.9081 204.585 67.576 202.781 67.1775 201.845C64.8969 196.399 61.775 202.538 59.0073 199.659C57.5682 198.202 57.546 196.329 55.5312 195.497C54.1363 194.907 52.8964 195.254 51.4572 194.907C48.756 194.213 46.8518 189.669 45.1469 186.374C43.0435 182.385 41.6486 176.696 41.6043 171.563C41.56 165.805 42.7113 162.925 44.0841 157.931C45.1912 153.907 49.5751 150.299 48.0474 145.755C47.3831 143.847 45.6119 143.015 47.4496 140.726C48.8445 138.991 50.4387 141.211 51.6565 141.211C54.5791 141.211 55.2433 131.638 52.4535 131.95C52.52 137.396 51.3907 135.939 48.9552 135.21C48.3352 135.037 46.2097 134.794 45.6783 135.28C44.7927 136.078 45.0141 138.228 44.2613 139.165C42.6671 141.211 40.7629 139.338 39.1023 142.252C37.5967 144.888 37.5967 147.802 36.9768 150.958L36.2018 151.583C35.7147 150.161 33.4342 150.577 32.9028 148.253C32.3492 145.825 33.722 143.154 34.6077 141.523C35.6262 139.65 41.5379 131.464 36.9989 130.319C36.6889 126.747 38.6595 121.127 34.6962 122.272C33.412 122.654 32.4821 123.972 31.5079 121.995C31.065 121.058 30.8436 118.075 30.6001 116.757C29.8694 113.045 29.5152 108.987 29.028 105.275C28.4745 100.766 30.0244 99.205 31.22 95.5629C31.8843 93.5857 31.995 91.4004 32.7699 89.562C33.5227 87.8276 35.1612 86.4401 36.2461 85.3301C37.3974 84.1854 38.3052 82.8326 39.678 82.5204C41.4714 82.1389 42.4235 83.4917 43.9291 80.9942C45.7447 77.9764 43.907 72.704 42.0028 70.4146C40.5637 68.7149 39.6559 69.1659 38.0838 68.368C36.4011 67.5356 36.0468 66.7724 34.0763 67.0846C32.46 67.3621 31.3972 67.3968 29.958 68.5415C28.6074 69.6168 27.456 71.3165 25.7511 70.7268C20.9465 69.1658 27.8324 61.604 23.8249 60.7022C23.3156 60.5981 22.1421 61.5693 21.5 61.6387C20.7472 61.7081 19.9058 61.7081 19.1973 61.3265C17.6253 60.5634 16.0754 58.1353 16.2968 62.5406C16.4075 64.7953 16.8503 67.0846 17.0496 69.5127C17.271 72.0102 18.4002 73.5364 18.2452 76.1727C17.9574 80.3005 14.8355 84.3242 13.0642 87.0992C12.2228 88.3826 5.53616 96.5688 4.53979 95.4935C3.72058 94.6263 4.93832 90.1169 5.02689 88.9029C5.27045 86.1626 4.42905 84.1507 4.2962 81.6186C3.98624 75.4789 6.73175 75.3402 8.74661 71.5593C9.67654 69.8596 10.2965 67.2927 8.94589 66.1827C7.66171 65.1074 5.15976 66.4256 3.72058 65.5931C2.10428 64.6565 1.9935 62.5406 0.975006 60.8062C0.687164 60.2859 0.355072 59.8697 0.000823975 59.5575V40.5142Z" fill="#D8F0FC"/>
<path d="M114.692 239.551C113.807 240.036 113.076 243.679 112.744 244.997C112.19 247.217 112.965 248.847 113.94 250.581C114.626 251.83 115.822 254.466 116.995 253.287C118.191 252.108 117.527 248.431 116.84 246.974C116.353 245.968 115.645 245.239 115.379 244.06C115.069 242.673 115.312 241.042 114.692 239.863V239.551Z" fill="#D8F0FC"/>
<path d="M58.719 276.217C58.9626 275.176 59.2726 273.372 59.2947 272.262C59.3168 270.875 58.8076 269.904 58.8076 268.482C58.8519 265.741 57.6341 264.978 56.1064 264.25C54.5343 263.487 53.9587 261.058 52.6523 259.671C52.0102 258.977 51.2131 259.012 50.5046 258.596C49.8846 258.249 48.8883 255.023 48.2905 254.537C47.0063 253.566 45.08 249.161 43.9286 247.808C42.7552 246.455 42.4895 251.138 41.0281 251.069C40.386 251.034 39.3897 250.999 38.969 251.936C38.4155 253.15 39.1683 253.948 39.6775 254.711C40.1646 255.404 40.6075 256.202 41.0281 257C41.8031 258.457 41.5374 258.596 41.006 260.295C40.5632 261.718 40.8731 262.515 40.7403 263.938C40.6296 265.256 39.9875 265.88 39.6554 266.921C39.279 268.135 39.3897 268.863 40.2753 269.488C41.2274 270.216 41.5374 269.938 41.9138 271.812C42.1352 273.026 42.2238 274.24 42.5559 275.454C42.9766 277.015 43.7072 278.402 44.1058 279.998C44.3715 281.108 44.0615 282.426 44.305 283.466C44.5486 284.403 45.4121 285.236 45.9656 285.617C46.2756 285.86 46.6742 285.929 46.962 286.172C47.2941 286.45 47.4048 286.97 47.8034 287.109C48.6669 287.386 48.7776 286.137 49.5304 285.756C51.0803 285.027 52.453 286.658 53.8922 286.658C54.9772 286.658 57.147 284.542 56.2171 282.565C56.2171 282.565 58.1655 278.68 58.719 276.217Z" fill="#D8F0FC"/>
<path d="M86.9496 251.206C87.5696 248.05 85.0455 247.079 83.6506 248.362C82.2114 249.715 81.6136 251.9 80.5508 253.739C79.4438 255.681 77.8717 256.305 77.0082 258.838C76.189 261.231 75.0376 262.723 73.9084 264.734C71.8714 268.411 69.5687 271.672 67.6424 275.487C67.0225 276.667 66.8454 277.812 66.624 279.234C66.3804 280.76 66.0483 281.454 65.4726 282.668C64.5205 284.749 65.2955 288.148 66.4468 289.848C68.3067 292.623 69.4359 288.981 70.4987 286.761C71.2958 285.096 71.96 283.327 72.6242 281.523C73.2885 279.685 74.2406 278.471 75.2369 277.118C78.4917 272.678 79.3773 265.359 81.7907 259.982C82.5878 258.248 83.4956 257.173 84.4256 255.646C85.1119 254.502 85.7762 252.802 86.6618 251.97L86.9496 251.206Z" fill="#D8F0FC"/>
<path d="M47.1176 301.327C47.6711 300.911 48.601 301.778 49.2431 301.778C50.0624 301.813 50.7709 301.432 51.568 301.293C53.1843 301.05 54.8449 301.085 56.3948 300.703C57.9668 300.322 59.4281 299.42 60.9337 298.726C62.3065 298.067 64.1442 298.067 65.0077 296.228C65.517 295.118 65.6277 294.321 65.1849 293.003C64.7199 291.58 64.2549 291.927 63.2586 292.101C62.5943 292.239 61.753 292.343 61.1551 292.898C60.5352 293.488 60.2474 294.529 59.4945 294.841C58.7639 295.118 57.8118 294.945 57.0812 295.118C55.797 295.431 55.9741 294.598 55.0442 293.8C53.4943 292.517 52.0551 295.118 50.7045 295.604C50.1952 295.777 49.5753 295.292 49.1546 295.847C48.7782 296.298 48.911 297.2 48.6453 297.824C48.0475 299.212 46.7633 299.003 46.6305 300.738L47.1176 301.327Z" fill="#D8F0FC"/>
<path d="M38.5044 284.956C39.0136 283.985 39.7664 284.02 39.5893 282.251C39.4786 281.071 38.7922 280.551 38.5044 279.58C38.1723 278.539 38.3937 277.221 38.3051 276.042C38.2165 274.793 37.9951 273.509 37.8401 272.261C37.5966 270.284 36.8216 267.821 35.6481 266.78C34.1425 265.427 32.6812 266.607 31.087 266.641C30.29 266.641 29.4929 266.537 28.7622 266.052C28.3194 265.774 27.2344 264.213 26.7252 264.525C25.8617 265.08 26.5038 266.884 26.8138 267.578C27.1459 268.376 27.3894 269.382 27.7215 270.11C28.5629 271.983 30.6664 271.394 31.9506 271.22C33.1462 271.012 36.1353 269.833 35.626 273.336C35.5374 273.856 35.471 274.515 35.0503 274.55C34.4968 274.585 34.6739 273.509 34.2754 273.301C33.7661 273.059 32.969 274.099 32.3269 274.064C31.7734 274.064 30.8213 273.128 30.3121 273.475C29.4264 274.03 29.7586 275.729 30.3121 276.458C31.2642 277.776 33.7661 277.394 32.9248 279.996C32.7255 280.516 32.4598 280.863 32.3048 281.453C32.1941 281.973 32.2827 282.702 32.1277 283.153C31.8398 284.228 31.1092 284.471 30.9763 285.893C30.7771 287.974 31.5077 287.28 32.4377 287.558C33.1683 287.766 33.6554 289.362 34.3418 289.188C34.6739 287.766 34.6296 281.557 36.2902 282.285C36.4231 284.054 35.3603 285.372 35.6481 287.384C35.8253 288.668 35.8031 292.241 37.0652 291.2C38.3272 290.125 37.6851 286.448 38.5044 284.956Z" fill="#D8F0FC"/>
<path d="M56.505 204.341C55.9293 208.122 62.2839 205.104 59.959 201.67C59.4276 200.907 58.9848 201.184 58.3427 201.011C57.8999 200.907 57.3685 200.144 56.97 200.144C55.1544 200.074 56.9478 203.474 56.6821 204.063L56.505 204.341Z" fill="#D8F0FC"/>
<path d="M41.8037 191.094C41.5602 192.759 41.0066 197.545 39.2575 195.083C38.3054 193.73 38.5046 190.539 38.3275 188.666C38.1282 186.48 37.2205 184.468 37.1762 182.318C37.0655 178.641 39.2132 180.271 39.8774 182.456C40.6302 184.954 41.8037 191.094 41.8037 191.094Z" fill="#D8F0FC"/>
<path d="M27.6995 240.452C27.8766 241.493 28.6516 242.498 29.338 242.568C30.2236 242.672 30.3122 241.458 30.9764 241.215C31.8178 240.938 33.5891 243.539 33.6776 244.996C33.7662 246.071 33.5448 247.528 32.7034 247.008C32.482 246.904 32.3049 245.967 32.0392 245.724C31.7956 245.447 31.2643 245.308 30.9764 245.308C29.028 245.239 29.5372 247.875 28.5409 249.679C27.9209 250.789 25.7068 253.529 25.3747 251.205C25.2197 250.199 26.0389 248.916 25.7511 248.083C25.3304 246.8 24.6661 247.91 24.5997 246.071C24.5333 243.99 25.264 241.354 25.6625 239.411C25.8175 238.613 26.1275 237.295 26.836 237.573C27.5445 237.85 27.3895 239.481 27.5002 240.313L27.6995 240.452Z" fill="#D8F0FC"/>
<path d="M35.3382 222.276C35.936 224.496 37.9952 221.825 38.6816 221.028C39.8329 219.744 40.2315 217.663 40.1429 215.512C37.2645 214.506 42.0028 203.302 37.3752 207.049C36.7996 207.534 35.8918 207.569 35.4268 208.367C34.8733 209.303 35.139 210.379 34.9397 211.558C34.7404 212.807 34.519 212.841 34.674 214.229C34.8068 215.374 35.0061 216.553 35.1611 217.732C35.2718 218.6 35.5818 220.334 35.2497 221.27C34.8068 222.554 34.0319 221.895 33.3012 221.825C31.3971 221.652 30.8878 224.045 30.6 226.369C31.4192 226.127 32.0392 224.705 32.9248 224.392C33.3676 224.254 35.3382 222.276 35.3382 222.276Z" fill="#D8F0FC"/>
<path d="M31.4637 307.225C32.7036 305.005 30.5559 302.82 28.9396 301.814C27.899 301.189 25.7734 299.351 24.5999 300.114C22.4301 301.571 25.9506 303.097 26.4377 303.618C27.8326 305.144 28.7846 307.052 30.6002 307.364C30.9766 307.433 31.1759 307.745 31.4637 307.225Z" fill="#D8F0FC"/>
<path d="M38.1274 225.919C38.1274 226.544 35.3819 231.192 35.4262 227.758C35.4484 226.44 37.1975 223.977 37.9503 225.017L38.1274 225.919Z" fill="#D8F0FC"/>
<path d="M30.1131 228.206C30.0245 229.351 27.8104 232.923 27.6997 230.322C27.589 227.928 29.1832 226.714 30.2017 228.206" fill="#D8F0FC"/>
<path d="M33.3016 230.914C31.7075 232.232 33.2573 236.498 34.143 236.047C35.0286 235.631 34.3423 229.526 33.5009 230.914" fill="#D8F0FC"/>
<path d="M30.6442 232.439C29.05 233.758 31.2863 239.55 32.1941 239.099C33.0797 238.683 32.3934 232.578 31.5298 233.966" fill="#D8F0FC"/>
<path d="M27.7883 235.77C27.5669 234.105 30.0689 230.497 29.7146 233.792C29.7146 233.792 28.0983 238.094 27.7883 235.77Z" fill="#D8F0FC"/>
<path d="M4.57764e-05 332.304C0.221458 332.339 0.509285 332.269 0.92997 332.061C2.47986 331.263 3.89689 329.841 5.07038 328.003C6.33244 325.991 9.07796 326.164 8.90084 323.042C8.72371 319.782 4.694 315.411 5.75678 313.885C6.81956 312.393 10.34 311.942 11.8456 311.179C14.2369 309.965 13.6834 312.116 15.1226 314.821C16.3625 317.111 17.3145 315.342 18.4659 316.903C19.1744 317.909 20.1265 321.828 20.0601 323.285C21.3 323.84 22.7613 324.638 23.8905 323.667C25.8168 322.036 25.7504 320.545 28.0752 323.008C29.3373 324.326 30.9314 326.025 31.5514 328.141C32.4149 330.951 31.8171 332.13 33.8984 332.998C34.4519 333.24 34.9611 332.581 35.6475 333.206C36.6217 334.038 36.666 335.287 37.0203 336.605C37.6624 339.033 37.906 340.421 39.478 341.704C42.2456 343.959 45.2569 344.236 48.0024 346.907C50.7922 349.647 53.4491 350.757 54.1576 355.995C54.5119 358.493 54.4012 361.233 55.0876 363.592C55.4419 364.84 56.0618 364.702 56.1061 366.297C56.1504 367.893 55.3533 368.24 54.999 369.627C53.9584 373.616 54.1577 380.866 55.1983 384.404C56.1947 387.734 59.0952 394.151 54.3569 392.937C51.3678 392.209 48.6223 390.752 45.4783 390.232C42.4006 389.677 39.9651 386.347 37.1753 384.473C31.9721 380.97 25.4404 377.328 21.6985 386.902C21.1007 388.428 20.2593 392.798 19.1965 393.562C18.1338 394.29 17.4917 391.862 16.6282 390.891C15.6761 389.85 15.2332 388.22 13.9933 387.838C13.9491 388.983 13.8605 390.37 14.104 391.446C14.414 392.59 15.1004 392.729 15.3218 393.562C15.9418 395.782 15.1004 397.447 14.7462 399.909C14.5026 401.574 14.9011 402.06 14.1705 403.482C13.7719 404.211 12.4877 405.39 12.0006 405.91C11.3585 406.569 10.6722 407.506 9.91936 407.714C8.63516 408.061 8.63513 407.055 7.72734 406.604C5.29179 405.39 2.5463 405.98 4.57764e-05 405.043V332.304Z" fill="#D8F0FC"/>
<path d="M0.000421524 277.118C1.35104 276.702 2.81239 276.771 3.7866 278.159C4.8051 279.616 6.00073 280.309 6.55427 282.703C7.88274 282.391 7.92699 280.205 8.34768 278.471C8.54695 277.569 8.59122 276.563 8.83477 275.731C9.0119 275.072 9.41047 274.586 9.74259 273.927C10.2961 272.817 10.2961 272.47 11.2703 272.574C11.9124 272.609 12.3995 273.095 12.9973 273.372C13.8609 273.754 16.1857 273.129 16.1857 275.28C16.2079 277.257 15.0344 276.043 14.348 276.355C13.5509 276.702 13.573 278.124 12.9088 278.61C12.5988 278.853 10.5175 278.714 10.8054 279.65C10.9382 280.171 12.7981 280.136 13.1967 280.864C13.8166 281.974 13.1966 283.258 12.7095 284.368C12.0231 285.998 11.9567 286.172 10.9604 285.339C10.0968 284.611 9.98615 284.68 9.14479 285.617C8.43626 286.38 7.88271 286.9 7.0192 287.247C4.2294 288.461 0.487552 292.242 1.90459 297.514C2.19243 298.59 2.72381 299.526 2.05957 300.532C1.12964 301.989 0.797529 300.22 0.133291 299.7C0.0890083 299.665 0.0447044 299.665 0.000421524 299.63V277.118Z" fill="#D8F0FC"/>
<path d="M11.6471 424.433C12.3999 420.895 11.5585 417.53 10.2965 414.443C9.27798 412.049 9.47725 412.986 7.79451 413.853C6.55459 414.478 5.64683 414.061 4.3405 414.2C3.36628 418.05 5.24827 418.154 6.86458 419.819C8.25949 421.242 8.76871 424.017 10.4957 424.433H11.6471Z" fill="#D8F0FC"/>
<path d="M32.7253 87.3765C33.1238 86.2319 33.6331 83.3875 32.3267 83.4222C31.4632 83.4569 30.9983 85.885 30.644 86.8562C29.6255 89.6659 28.1642 91.2615 26.9686 93.7937C25.8394 96.1524 23.6916 98.8927 23.0052 101.529C22.6731 102.882 22.806 104.304 22.4296 105.761C22.0532 107.183 21.1897 107.773 21.1454 109.75C22.5182 110.027 23.6252 107.703 24.5994 106.524C26.26 104.547 26.0608 103.888 26.9243 101.043C28.0313 97.2971 30.4669 93.2734 32.1275 90.1168L32.7253 87.3765Z" fill="#D8F0FC"/>
<path d="M19.3739 127.06C20.0603 125.082 21.9866 123.591 21.4774 120.747C21.2559 119.532 20.4367 119.706 20.3481 117.659C20.3038 116.376 21.2559 114.919 20.3481 114.017C19.4625 113.081 16.6284 116.445 15.6985 116.966C14.1929 117.902 12.0451 117.798 12.2666 121.232C12.643 121.579 13.2186 122.065 13.4401 122.724C13.6393 123.348 13.6615 125.325 13.9493 125.637C15.1007 126.782 16.5841 123.556 17.6026 123.14C17.7798 124.389 17.7134 125.533 18.2226 126.158L19.3739 127.06Z" fill="#D8F0FC"/>
<path d="M26.1488 154.01C26.5031 153.039 28.0087 152.97 28.2301 152.137C28.6065 150.75 27.4552 148.877 26.8795 148.01C25.9938 146.761 25.551 146.345 24.3997 145.824C23.5361 145.408 21.8313 145.755 21.1227 144.922C20.2149 143.916 20.3035 142.217 19.3736 141.28C18.2665 140.17 17.7573 141.454 17.248 138.852C16.628 135.557 18.1115 132.435 17.8015 129.209C14.3918 127.475 14.5468 133.441 14.1704 137.361C13.794 141.245 11.9562 145.373 12.4434 149.709C14.1704 149.501 15.4989 151.131 17.2702 150.403C17.6023 151.79 17.3366 153.837 18.4215 154.323C19.9714 154.982 19.8385 152.623 20.6799 151.513C22.0748 149.64 24.6211 150.125 25.5732 151.894L26.1488 154.01Z" fill="#D8F0FC"/>
<path d="M27.8984 163.375C28.0312 160.947 30.7546 157.999 29.6475 155.744C28.0755 152.588 26.6806 158.554 24.8207 158.276C24.4665 160.601 26.9242 166.15 27.8984 163.688V163.375Z" fill="#D8F0FC"/>
<path d="M286.088 94.939C284.605 93.0312 281.837 92.0253 281.306 88.5913C281.173 87.6547 281.239 86.7875 280.996 85.851C280.708 84.9144 280.199 85.0532 280.154 83.8391C280.044 81.4804 281.638 81.1682 282.656 81.9313C283.564 82.6251 284.073 84.2207 284.826 85.1225C285.933 86.4406 287.394 85.8856 288.457 87.1691C289.121 87.9669 289.586 90.2216 289.099 91.7825C288.612 93.4475 286.929 92.9965 286.974 94.7309C286.974 94.8003 286.974 94.8697 286.974 94.939H286.088Z" fill="#D8F0FC"/>
<path d="M296.672 54.078C295.188 52.1355 289.83 52.5171 289.299 49.083C289.166 48.1465 289.564 46.5856 289.299 45.649C289.033 44.7124 290.782 44.1921 290.738 42.9434C290.627 40.5846 292.221 40.3072 293.24 41.0703C294.148 41.7293 294.657 43.3249 295.41 44.2268C296.517 45.5796 297.978 45.0246 299.041 46.2734C299.705 47.0712 303.358 49.5687 302.893 51.1296C302.384 52.7599 300.701 52.3436 300.746 54.078C300.746 54.1474 297.557 54.0086 297.557 54.078H296.672Z" fill="#D8F0FC"/>
<path d="M280.442 97.2275C280.287 94.5219 279.556 94.5912 278.737 92.6141C278.161 91.1919 278.626 89.0413 278.449 87.4457C278.272 85.9194 277.497 84.5666 277.696 82.9016C277.874 81.202 278.914 80.7857 279.468 79.3289C280.597 76.3804 279.844 71.0733 278.272 68.8186C277.586 67.8474 275.991 66.4599 275.128 67.5005C273.999 68.888 274.862 70.6224 275.682 71.3161C275.017 73.1892 273.18 71.8017 272.892 74.0564C272.737 75.2358 273.379 75.4439 273.512 76.3111C273.689 77.4557 273.622 77.0742 273.49 78.3576C273.357 79.537 273.091 79.1901 273.29 80.4735C273.467 81.4795 274.176 81.3407 274.021 82.867C273.888 84.2891 272.692 85.3298 272.139 86.0235C271.63 86.7172 271.408 86.1622 271.165 87.4457C270.965 88.4863 271.585 89.18 271.453 89.9432C271.231 91.2613 269.128 92.6141 270.323 94.2097C270.877 94.9728 272.98 94.1056 273.733 94.5566C274.796 95.1462 275.438 96.7765 276.501 97.2622C277.32 97.6437 279.158 97.1581 279.578 98.1293L280.442 97.2275Z" fill="#D8F0FC"/>
<path d="M342.349 64.9692C340.843 70.4498 337.035 66.322 335.53 63.5471C334.666 61.9514 334.179 60.2171 333.116 58.7949C332.031 57.3727 330.681 56.4362 329.596 55.0487C328.466 53.5918 327.935 51.9268 327.094 50.2618C326.186 48.4581 325.012 48.2153 323.64 47.7644C321.027 46.8972 318.392 47.244 316.244 44.5384C313.698 41.2778 311.506 40.2372 308.163 39.9944C306.414 39.8557 301.388 39.821 300.546 36.6297C300.126 35.0341 301.388 33.5079 299.86 32.4673C298.709 31.7042 297.38 33.8895 296.827 31.8082C296.295 29.727 298.332 28.9985 297.889 27.0561C297.424 25.0789 295.387 26.0848 294.369 25.9114C291.933 25.4604 291.845 22.6508 291.734 19.3555C290.428 18.523 290.029 17.5171 289.874 15.4705C289.653 12.869 289.608 11.863 287.992 10.4409C285.911 8.63713 283.52 8.18619 281.571 6.38245C281.018 5.86214 279.269 4.23184 279.556 2.94842C279.844 1.73436 282.169 2.25467 282.9 2.28936C286.177 2.4628 289.387 4.57872 292.753 4.33591C298.864 3.85029 304.554 0.0346873 310.709 0C314.584 0 318.702 0.589682 322.378 2.49748C326.009 4.40528 329.684 4.75215 333.47 5.48059C335.308 5.82746 336.814 6.59058 338.74 6.59058C340.688 6.59058 342.283 7.24963 344.076 8.11682C346.6 9.36556 349.124 11.6896 351.626 12.2793C353.42 12.6955 358.158 13.0771 354.77 17.2049C352.999 19.3902 350.718 18.8699 348.571 19.3208C347.109 19.5983 345.582 20.847 344.386 22.2692C342.504 24.4892 343.833 24.8014 343.943 27.4723C344.076 30.5942 342.327 29.3801 341.331 30.4901C339.604 32.4673 342.106 32.5713 343.058 32.9876C343.102 34.9301 342.858 35.936 343.788 37.0807C344.63 38.1213 345.405 38.2254 346.113 39.7516C347.486 42.7694 347.752 46.0994 347.862 49.7415C347.951 52.7246 346.246 67.7442 343.368 65.4202L342.349 64.9692Z" fill="#D8F0FC"/>
<path d="M381.782 15.2267C380.83 14.4983 379.369 16.3714 378.306 16.6142C377.11 16.857 375.981 16.2326 374.83 16.1286C372.704 15.9551 369.516 18.1058 367.568 16.8223C366.793 16.302 365.752 13.978 364.822 13.1802C363.693 12.2089 362.453 11.8967 361.191 11.3417C359.619 10.6827 358.135 10.1971 356.408 9.98894C354.836 9.8155 354.305 8.74019 352.932 7.76895C350.629 6.17333 347.817 6.45083 345.404 5.51428C342.924 4.54303 340.622 2.94742 338.164 2.01087C337.411 -1.04161 343.389 0.311188 344.408 0.241813C347.662 -0.000997746 350.762 0.415253 353.973 0.900874C358.977 1.66399 364.335 -0.209121 369.162 0.935558C370.402 1.21306 375.14 1.9068 372.926 4.78585C371.974 6.03459 367.036 5.27147 368.409 8.91363C369.14 10.9255 373.036 11.5845 374.387 12.0355C376.535 12.7986 378.505 13.5617 380.631 14.533L381.782 15.2267Z" fill="#D8F0FC"/>
<path d="M371.044 8.08251C371.974 6.90314 373.258 6.38283 374.233 5.30753C375.295 4.19754 376.646 3.98942 377.93 4.54441C378.727 4.92597 379.347 5.61972 380.166 5.9319C380.809 6.2094 381.428 6.4869 382.071 6.62565C382.624 6.7644 385.48 6.14003 385.547 7.14596C385.635 8.1172 383.399 10.4759 382.868 10.6841C381.827 11.1003 380.255 11.239 379.17 10.9269C377.93 10.5453 376.845 9.88624 375.539 9.67812C374.941 9.57406 374.365 9.40062 373.745 9.43531C373.192 9.47 372.528 9.81687 371.996 9.67812C371.731 9.60875 371.487 9.29656 371.266 9.08844L371.044 8.08251Z" fill="#D8F0FC"/>
<path d="M380.698 47.4853C381.406 46.9997 382.381 46.6875 383.156 46.5834C384.13 46.4447 384.484 47.1037 385.215 47.9362C387.23 50.2256 384.86 51.4396 383.244 51.4396C381.251 51.4396 379.857 51.0928 378.373 53.3821C377.067 55.394 375.96 57.4405 374.233 58.6199C373.613 59.0361 371.908 60.3543 371.266 59.6258C370.292 58.5505 371.531 56.9896 371.576 55.9837C371.642 54.839 370.69 55.0471 370.114 55.1859C369.096 55.4287 368.476 55.498 367.79 53.9718C366.55 51.1968 367.302 49.6706 367.989 46.7915C368.299 45.5428 367.767 44.1206 366.771 44.2941C365.775 44.4675 365.62 46.5834 364.756 47.2425C362.52 48.9768 358.468 43.6697 361.789 41.7966C363.206 40.9988 365 41.0681 365.753 38.7441C366.395 36.8363 365.908 36.3507 365.155 34.8938C363.605 31.8066 368.542 28.7889 370.026 28.0951C371 27.6095 372.041 27.2626 373.103 27.2626C374.476 27.2626 375.605 26.7076 376.912 27.4707C377.665 27.9217 378.904 29.101 379.436 27.9217C379.967 26.777 379.613 25.4242 380.786 25.112C381.938 24.7998 382.713 26.4995 383.51 27.4707C384.263 28.3726 385.104 28.997 385.99 29.3092C386.344 28.1645 386.278 26.9851 385.768 26.0139C385.215 24.9039 384.993 24.3142 386.211 24.0714C387.628 23.8286 389.444 26.2914 390.352 27.7135C390.971 28.6848 391.525 30.2457 390.905 31.5638C390.241 32.9513 388.802 33.2288 387.805 33.3676C385.768 33.6451 383.643 33.8879 381.65 33.1595C380.964 32.9166 380.122 32.3963 379.392 32.7085C379.104 32.8126 379.104 33.2288 378.727 33.2982C378.329 33.3329 378.196 32.9166 377.864 32.7432C376.248 31.8066 375.628 35.1713 374.808 36.8016C373.591 39.2644 373.236 42.2128 374.941 44.2941C375.65 45.1266 376.27 45.7162 376.779 46.7915C377.31 47.9709 377.62 48.1443 378.594 48.1443C378.786 48.1675 378.978 48.1675 379.17 48.1443L380.698 47.4853Z" fill="#D8F0FC"/>
<path d="M373.746 25.7713C374.321 25.7019 375.318 25.4244 375.606 24.5225C375.893 23.586 375.495 22.5454 374.897 22.2679C373.79 21.7822 372.528 22.8922 371.487 23.1697C371.044 23.3085 370.314 23.0657 369.893 23.4125C369.251 24.0022 369.362 24.9735 369.893 25.3203C370.336 25.6325 371.067 25.4244 371.554 25.5631C372.196 25.7713 372.794 26.8119 373.369 26.8119L373.746 25.7713Z" fill="#D8F0FC"/>
<path d="M388.89 22.5103C390.24 22.2675 391.679 22.6143 392.964 22.1634C393.229 22.094 394.248 21.5737 394.425 21.6778C394.669 21.8165 394.646 22.4756 394.801 22.7184C395.045 23.0653 395.311 23.1693 395.576 23.3774C396.218 23.8631 397.901 25.7015 396.993 26.9155C396.196 27.9562 394.691 26.2912 393.894 26.1177C392.809 25.9096 392.189 26.3605 391.192 25.5974C390.484 25.0424 389.465 24.4874 389.177 23.1693L388.89 22.5103Z" fill="#D8F0FC"/>
<path d="M376.779 22.8258C376.469 21.6118 374.321 21.6465 373.613 20.8833C373.17 20.3977 372.528 19.0102 372.793 18.0737C373.037 17.1024 374.055 17.1371 374.609 17.1718C375.428 17.2412 376.181 17.7268 377 18.0043C378.152 18.3512 379.148 18.2818 380.321 17.9349C381.716 17.5187 383.51 17.3106 384.728 16.2352C385.525 15.5415 386.167 15.0212 386.853 16.4781C387.495 17.7962 387.584 18.7327 388.514 19.6693C387.517 21.9586 384.573 21.369 382.934 21.369C382.004 21.369 380.897 21.1262 379.967 21.369C379.059 21.6465 378.262 22.6871 377.354 22.7218L376.779 22.8258Z" fill="#D8F0FC"/>
<path d="M404.544 30.1095C403.193 30.6992 401.554 29.6239 400.536 28.1671C400.005 27.4039 399.805 26.5714 399.407 25.6696C399.119 24.9758 398.388 24.0393 398.588 23.068C398.809 22.0274 399.96 22.3743 400.558 22.5824C401.554 22.8946 402.44 23.3455 403.459 23.0333C404.366 22.7558 404.632 22.6518 405.119 24.178C405.562 25.5308 405.761 25.9124 406.713 26.2593C407.754 26.6061 407.621 27.2652 406.935 28.618C406.337 29.7974 405.385 30.5952 404.389 30.4564L404.544 30.1095Z" fill="#D8F0FC"/>
<path d="M399.098 17.6221C399.253 18.3159 397.858 18.9403 397.415 18.9749C396.839 19.0443 396.419 18.7668 395.932 18.2812C395.378 17.7609 395.002 17.4487 394.315 17.2753C393.74 17.1365 393.031 17.0671 393.407 15.7143C393.872 13.8759 395.799 14.084 396.706 14.7431C397.171 15.09 397.526 15.645 397.946 15.9918C398.456 16.4428 399.031 16.5468 399.474 17.1712L399.098 17.6221Z" fill="#D8F0FC"/>
<path d="M399.252 52.9324C399.23 51.6143 397.946 50.8859 397.37 50.2268C396.662 49.429 396.64 48.6659 396.197 47.6253C395.377 45.5441 393.894 46.2378 393.252 47.9722C392.787 49.2209 392.3 49.5678 391.702 50.6431C391.348 51.3021 390.639 53.2793 391.281 53.869C391.901 54.4587 392.721 52.9671 393.23 52.5856C393.894 52.1346 394.448 52.0653 395.045 52.8284C395.842 53.7996 396.352 54.2852 397.414 54.2852C398.234 54.3199 399.407 54.6321 399.252 52.8284V52.9324Z" fill="#D8F0FC"/>
<path d="M408.53 20.7793C408.043 20.6406 404.743 19.8774 405.983 18.4206C406.227 18.1431 406.625 18.3512 406.869 18.1431C407.356 17.7615 407.09 17.7962 407.29 17.1718C407.622 16.2353 407.888 15.819 408.751 15.9231C409.526 15.9925 409.969 16.9984 410.699 17.3453C411.497 17.7615 412.161 17.5187 412.803 16.8943C414.109 15.6803 415.283 15.5068 416.744 16.374C417.873 17.0331 420.53 16.7556 420.574 19.0796C420.597 21.3343 418.914 20.8834 417.873 20.814C416.257 20.6752 414.751 20.6059 413.179 20.9181C411.718 21.1955 409.482 21.7159 408.087 20.9181L408.53 20.7793Z" fill="#D8F0FC"/>
<path d="M414.685 37.7046C413.666 37.219 412.227 36.1784 411.452 34.9643C410.168 32.9872 412.471 31.9119 412.072 29.6572C411.917 28.6166 411.275 28.0963 411.231 26.9169C411.164 25.6682 411.696 24.801 412.515 24.8704C413.755 24.9744 415.526 30.0388 416.788 27.9228C417.275 27.0903 417.054 26.3272 418.028 26.466C418.604 26.57 419.335 27.4025 419.91 27.2638C420.574 27.125 420.663 26.0497 421.438 25.911C421.947 25.8069 422.611 26.466 423.032 26.2579C423.63 25.911 423.431 24.801 423.541 24.1072C423.718 22.7197 424.272 22.6851 425.113 22.6157C425.866 22.5463 426.575 22.4769 427.305 22.2688C427.947 22.0954 428.457 21.7138 429.121 21.6098C430.671 21.3323 432.176 22.4076 433.682 22.7197C435.653 23.136 437.025 25.911 438.841 26.7782C439.328 27.021 440.634 27.68 440.258 28.9635C440.147 29.3797 439.284 29.7266 439.04 29.7613C438.287 29.9 437.822 29.241 437.158 28.8594C436.162 28.2697 435.033 28.5472 433.992 28.2003C433.284 27.9575 431.866 27.0903 431.158 27.5066C430.56 27.8535 430.87 28.0963 431.202 28.8594C430.981 29.0675 430.715 29.4838 430.494 29.6572C430.272 29.8306 429.608 29.7959 429.475 30.1081C428.944 31.3222 430.538 31.5303 430.981 31.565C431.734 31.6691 432.154 31.8772 431.734 33.1606C431.379 34.1665 430.892 34.3747 431.8 35.3112C431.424 36.0396 430.715 35.7968 430.184 36.2131C429.564 36.6987 429.763 37.4965 429.165 37.8434C428.523 38.225 427.505 37.2537 426.885 36.9415C426.021 36.5253 425.202 36.4212 424.338 36.1437C422.611 35.6234 421.106 34.6868 419.357 35.3112C418.405 35.6234 416.855 35.3459 416.213 36.8028L414.685 37.7046Z" fill="#D8F0FC"/>
<path d="M365.199 99.7959C367.192 100.628 367.812 97.3678 366.638 95.2865C366.24 94.5928 365.132 93.8297 365.398 92.5116C365.775 90.6038 366.926 92.5116 367.324 93.2747C368.852 96.1537 369.671 100.039 371.863 101.808C372.815 102.571 373.723 102.814 374.388 104.201C375.03 105.485 375.207 106.664 374.188 107.219C373.546 107.531 372.328 107.601 371.686 107.184C370.911 106.699 370.358 105.519 369.428 105.381C368.764 105.311 367.767 105.831 367.147 106.144C366.372 106.56 365.841 107.566 365.11 107.982C362.741 109.3 363.428 105.97 363.184 103.889C363.051 102.848 362.985 101.287 362.763 100.282C362.542 99.2409 361.568 98.1309 362.985 98.1309C363.56 98.1309 363.959 98.8246 364.424 99.0328L365.199 99.7959Z" fill="#D8F0FC"/>
<path d="M412.67 122.064C414.065 122.376 415.128 123.208 416.611 123.07C417.165 121.578 416.988 119.601 416.213 118.317C415.238 116.652 414.308 116.687 412.958 116.583C412.404 113.843 412.404 112.039 414.397 111.033C415.416 110.548 417.785 109.611 418.25 107.946C418.604 106.628 418.161 104.998 418.626 103.61C419.025 102.465 419.91 102.049 420.619 101.494C422.213 100.315 423.874 102.049 425.313 103.471C426.088 104.234 426.796 105.344 427.638 105.899C428.457 106.42 429.32 106.246 430.162 106.663C430.671 106.905 432.11 107.322 431.977 108.432C431.8 109.715 430.317 109.646 429.763 109.507C428.125 109.091 426.575 108.293 424.848 108.57C424.051 108.709 423.32 109.195 422.523 109.333C421.748 109.472 420.995 109.368 420.287 109.611C419.977 109.715 419.733 109.854 419.445 109.958C419.18 111.484 420.663 110.998 421.261 110.998C422.124 110.998 422.811 111.172 423.586 111.449C425.601 112.247 425.601 113.6 426.752 115.993C427.837 118.248 428.567 119.601 428.988 122.376C429.32 124.318 429.276 128.238 427.35 126.157C426.663 125.394 426.065 123.625 425.534 122.653C424.892 121.509 424.338 120.225 423.851 118.872C423.01 116.583 421.925 114.537 420.287 113.6C419.622 113.218 418.825 112.872 418.759 114.328C418.692 115.438 419.622 116.444 420.043 117.312C420.818 118.977 420.331 118.456 419.8 119.74C419.29 120.919 419.534 121.925 420.087 123C420.752 124.353 422.058 125.532 421.194 127.232C420.486 128.585 418.98 128.793 417.984 128.411C416.877 128.03 415.748 127.128 414.796 126.191C413.866 125.255 413.312 123.971 412.559 122.966L412.67 122.064Z" fill="#D8F0FC"/>
<path d="M342.593 296.924C342.593 293.456 343.08 293.317 344.475 290.889C346.667 287.073 348.372 284.922 351.671 283.639C354.926 282.356 357.76 282.078 360.372 278.471C363.029 274.828 366.129 277.014 368.875 274.482C369.849 273.545 371.686 271.394 372.174 269.695C372.727 267.683 372.816 265.706 373.568 263.659C374.986 259.739 375.805 254.883 378.727 253.114C381.252 251.588 385.414 253.357 386.809 249.715C387.606 247.599 387.717 246.211 388.979 244.477C389.953 243.124 391.237 242.292 392.123 240.939C393.186 239.309 393.518 237.297 394.824 236.117C396.13 234.973 397.636 235.146 399.031 235.458C400.404 235.805 402.197 236.707 403.681 236.083C404.876 235.597 406.227 233.828 407.334 232.961C408.95 231.678 409.924 230.776 411.253 232.961C412.183 234.522 411.718 238.337 413.312 237.852C413.201 236.187 412.891 234.071 414.087 233.308C414.331 230.602 412.626 230.498 412.803 228.243C414.973 230.117 417.585 230.81 419.91 232.371C421.327 233.308 422.146 234.452 422.611 236.672C422.966 238.303 422.877 239.343 423.541 240.696C424.006 241.633 424.715 242.014 425.136 243.055L426.287 240.904C427.305 235.771 431.18 240.87 433.261 239.794C435.631 238.546 437.003 233.932 436.87 230.325C436.76 226.821 435.808 219.953 437.712 217.907C439.594 215.895 443.535 217.733 445.771 216.623C446.125 213.259 443.801 210.692 442.871 208.229C442.339 206.841 442.162 205.107 441.764 203.685C441.432 202.54 440.502 200.667 440.347 199.522C439.727 194.562 442.981 196.331 444.841 196.713C447.985 197.302 447.786 200.008 448.517 204.275V204.864C450.31 207.605 455.912 209.79 457.993 207.015C459.145 205.523 458.857 201.5 459.1 199.418C459.432 196.782 459.919 194.354 459.919 191.544C459.942 188.908 459.366 186.445 458.812 183.983C458.303 181.763 457.927 178.502 457.218 176.421C456.244 173.611 451.971 169.414 449.889 168.443C446.967 167.159 444.708 171.599 442.074 168.304C440.524 166.327 440.214 165.945 438.088 165.286C436.428 164.766 435.011 163.933 433.239 164.315C428.9 165.217 430.294 171.356 429.962 176.421C429.475 183.809 424.981 183.74 424.117 176.49C423.763 173.507 424.56 170.94 424.361 167.922C424.095 164.245 422.877 162.927 421.305 160.395C419.401 157.239 418.072 154.498 415.903 151.897C414.043 149.642 412.249 146.728 411.209 143.398C409.238 137.189 405.474 132.576 401.688 128.622C399.872 126.749 398.256 125.535 396.684 123.106C395.289 120.99 394.049 119.187 392.455 117.591C390.927 116.065 389.488 114.92 387.85 114.053C388.492 119.083 386.898 119.43 384.196 118.181C381.916 117.175 377.687 117.175 380.853 113.186C382.004 111.764 382.824 112.076 382.403 108.885C382.226 107.358 380.787 105 381.229 103.439C382.026 100.664 386.942 102.294 388.558 102.19C389.377 96.4319 382.159 98.1663 380.277 98.2703C378.661 98.3744 377.023 98.8253 375.45 98.2703C373.878 97.75 372.484 96.085 371 94.871C368.387 92.7204 364.668 93.3447 365 87.6907C365.332 82.5223 369.494 81.447 370.048 76.1745C370.579 70.9021 369.339 63.0281 374.299 67.3293C375.45 68.3352 377.576 69.688 378.75 68.023C379.79 66.4621 379.414 63.8952 380.477 62.2303C381.96 59.9062 385.879 56.4722 388.027 57.9984C389.023 58.6922 390.219 63.1668 390.972 64.6584C391.769 66.3234 393.828 68.0924 394.204 69.7921C394.47 71.0061 393.828 72.2202 394.005 73.4342C394.226 74.8911 395.068 76.0358 395.732 77.0764C397.105 79.123 398.942 80.0595 400.049 82.5223C401.245 85.1932 401.511 86.997 403.304 88.9741C404.5 90.2922 405.85 91.8185 407.113 93.1019C407.688 91.1941 407.423 87.8988 407.113 85.8523C406.537 82.3142 405.895 82.3489 408.087 80.337C410.5 78.0823 413.423 75.5155 416.235 75.2727C417.984 75.0992 419.512 75.7236 419.711 72.5324C419.799 71.1449 419.091 70.4165 419.135 69.2024C419.18 67.7455 419.844 67.0865 419.91 65.8724C420.22 61.2243 414.773 59.4553 412.515 57.7556C410.788 56.4722 408.928 55.9519 407.157 54.9806C405.452 54.0441 404.212 52.3444 402.706 50.6794C400.138 47.835 397.282 44.8866 394.381 43.1523C391.879 41.6607 388.514 44.2276 387.185 38.7123C385.569 31.8442 392.167 40.8976 393.23 41.6607C394.802 42.7707 396.374 42.3891 395.577 38.9898C396.02 38.851 396.352 38.2614 396.883 38.2614C396.573 35.8333 397.946 35.3823 399.186 35.5558C399.739 34.0642 399.23 32.6073 398.477 31.7055C402.441 29.1386 402.706 36.6657 405.031 39.302C407.821 42.4238 410.301 39.9957 413.534 41.2792C415.083 41.8688 416.7 42.9441 418.382 42.5626C419.954 42.2157 421.416 40.412 423.143 40.1345C426.929 39.5101 430.737 41.0363 434.612 40.7588C437.07 40.5507 437.734 38.9898 439.616 37.1167C441.432 35.3476 443.845 35.4517 446.015 35.5904C448.162 35.7639 450.266 36.2495 452.391 36.5617C454.406 36.8739 455.978 36.0414 457.949 35.5904C461.735 34.6886 465.588 35.2436 469.197 33.7867C471.079 33.0583 472.54 34.1683 474.378 34.3764C475.441 34.5151 476.459 34.3764 477.478 34.203V191.024C476.703 192.412 476.105 193.903 475.972 195.811C475.618 200.875 476.858 204.24 473.603 207.847C472.296 209.27 470.724 209.894 469.197 210.622C467.293 211.559 466.85 212.877 465.344 214.646C462.466 218.011 459.3 219.398 455.868 219.121C452.79 218.843 451.373 223.491 448.539 225.191C445.55 226.96 443.756 227.931 442.007 232.51C441.166 234.661 441.365 236.742 440.435 238.823C439.594 240.731 438 242.222 436.76 243.436C435.631 244.546 434.147 246.107 432.863 246.662C431.047 247.46 430.937 246.073 429.542 244.928C425.733 241.876 425.711 250.582 425.711 254.259C425.711 257.242 426.021 258.491 426.863 260.919L428.612 266.365C428.302 266.677 428.036 266.573 428.257 267.509C430.892 268.758 430.383 270.527 431.269 274.239C432.154 277.881 431.468 279.372 431.49 283.015C431.534 285.963 432.974 285.928 433.394 288.218C433.748 290.091 432.243 292.935 431.711 294.531C431.047 296.508 430.383 299.63 429.342 301.399C427.947 303.862 426.752 304.729 425.755 307.781C424.361 312.083 423.984 318.257 421.903 321.864C420.043 325.021 417.054 326.686 414.884 329.045C412.139 332.062 409.15 339.104 408.884 344.203C408.507 351.661 408.862 358.772 409.083 366.264C409.327 374.832 407.688 382.359 407.932 390.823C408.131 398.28 407.511 404.593 406.36 411.635C405.43 417.428 402.33 419.821 401.112 425.892C399.872 432.066 398.655 438.414 396.905 444.345C395.533 448.993 394.093 456.694 390.374 456.555C388.027 456.451 388.514 456 387.208 459.503C386.145 462.348 384.816 461.827 383.576 463.492H383.953C382.779 463.492 379.834 464.637 378.927 463.492C377.244 461.446 379.768 459.85 380.853 458.914C383.598 456.52 385.635 453.329 387.119 449.063C388.824 444.102 383.908 441.154 385.281 436.853C386.056 434.459 392.721 434.459 390.573 429.811C390.019 428.597 388.625 428.562 388.027 427.175L388.602 425.336C387.54 421.417 388.669 421.486 389.709 418.33C389.997 417.428 390.44 415.173 390.152 414.133C389.621 412.259 388.735 413.3 387.805 412.641C386.211 411.531 386.123 408.964 384.75 407.403C383.266 405.773 380.477 406.501 379.502 403.865C377.665 398.87 385.879 392.765 380.477 392.349C378.727 392.21 377.111 392.869 375.45 392.939C373.258 393.077 373.148 391.829 372.351 389.019C371.664 386.521 371.044 384.371 370.624 381.735C370.314 379.931 370.292 379.341 369.494 377.815C369.007 376.878 368.255 376.566 367.767 375.63C366.97 374.103 365.93 370.669 365.775 368.727C365.598 366.333 366.616 363.94 366.173 361.443C365.487 357.488 362.121 353.187 359.597 352.667C358.025 352.32 356.232 353.326 354.948 351.453C353.907 349.892 353.663 347.186 352.579 345.486C351.272 343.37 350.232 342.711 349.944 339.659C349.678 337.057 350.054 334.317 350.121 331.785C350.276 325.957 349.567 322.35 348.195 317.251C347.508 314.719 347.464 312.395 346.401 310.036C345.493 308.059 344.054 306.567 343.191 304.521C342.305 302.335 342.593 299.56 342.593 296.924Z" fill="#D8F0FC"/>
<path d="M435.254 195.324C437.291 194.179 435.696 191.543 434.434 190.953C433.239 190.398 431.667 190.745 430.382 190.745C429.01 190.745 427.593 190.19 426.331 191.057C425.091 191.925 424.117 193.832 422.921 194.838C421.77 195.81 415.526 199.556 417.363 202.782C418.028 203.926 420.375 203.129 421.305 203.198C423.275 203.406 423.629 204.447 424.072 201.186C424.581 197.405 425.999 196.954 428.279 195.636C428.943 195.255 430.117 193.902 430.692 193.798C431.977 193.59 432.53 195.497 433.792 195.081L435.254 195.324Z" fill="#D8F0FC"/>
<path d="M415.46 209.58C415.903 209.372 417.054 208.644 417.054 207.742C417.076 206.216 416.279 206.84 415.637 206.528C413.445 205.383 414.309 205.071 414.043 201.984C413.954 200.804 414.619 201.221 413.512 200.666C412.759 200.284 412.183 200.978 411.585 201.359C410.19 202.296 405.253 203.788 405.408 206.771C405.541 209.199 407.511 207.95 408.663 208.297C409.504 208.54 409.548 208.991 410.146 209.511C410.833 210.066 414.264 210.101 415.46 209.58Z" fill="#D8F0FC"/>
</g>
</svg>
