<svg width="28" height="28" viewBox="0 0 28 28" fill="none" xmlns="http://www.w3.org/2000/svg">
<circle cx="14.0005" cy="14" r="14" fill="white"/>
<path d="M13.288 16.2125L11.9005 17.6C11.608 17.8925 11.143 17.8925 10.843 17.6075C10.7605 17.525 10.678 17.45 10.5955 17.3675C9.82299 16.5875 9.12549 15.77 8.50299 14.915C7.88799 14.06 7.39299 13.205 7.03299 12.3575C6.68049 11.5025 6.50049 10.685 6.50049 9.905C6.50049 9.395 6.59049 8.9075 6.77049 8.4575C6.95049 8 7.23549 7.58 7.63299 7.205C8.11299 6.7325 8.63799 6.5 9.19299 6.5C9.40299 6.5 9.61299 6.545 9.80049 6.635C9.99549 6.725 10.168 6.86 10.303 7.055L12.043 9.5075C12.178 9.695 12.2755 9.8675 12.343 10.0325C12.4105 10.19 12.448 10.3475 12.448 10.49C12.448 10.67 12.3955 10.85 12.2905 11.0225C12.193 11.195 12.0505 11.375 11.8705 11.555L11.3005 12.1475C11.218 12.23 11.1805 12.3275 11.1805 12.4475C11.1805 12.5075 11.188 12.56 11.203 12.62C11.2255 12.68 11.248 12.725 11.263 12.77C11.398 13.0175 11.6305 13.34 11.9605 13.73C12.298 14.12 12.658 14.5175 13.048 14.915C13.123 14.99 13.2055 15.065 13.2805 15.14C13.5805 15.4325 13.588 15.9125 13.288 16.2125Z" fill="#A639DF"/>
<path d="M21.4782 18.7468C21.4782 18.9568 21.4407 19.1743 21.3657 19.3843C21.3432 19.4443 21.3207 19.5043 21.2907 19.5643C21.1632 19.8343 20.9982 20.0893 20.7807 20.3293C20.4132 20.7343 20.0082 21.0268 19.5507 21.2143C19.5432 21.2143 19.5357 21.2218 19.5282 21.2218C19.0857 21.4018 18.6057 21.4993 18.0882 21.4993C17.3232 21.4993 16.5057 21.3193 15.6432 20.9518C14.7807 20.5843 13.9182 20.0893 13.0632 19.4668C12.7707 19.2493 12.4782 19.0318 12.2007 18.7993L14.6532 16.3468C14.8632 16.5043 15.0507 16.6243 15.2082 16.7068C15.2457 16.7218 15.2907 16.7443 15.3432 16.7668C15.4032 16.7893 15.4632 16.7968 15.5307 16.7968C15.6582 16.7968 15.7557 16.7518 15.8382 16.6693L16.4082 16.1068C16.5957 15.9193 16.7757 15.7768 16.9482 15.6868C17.1207 15.5818 17.2932 15.5293 17.4807 15.5293C17.6232 15.5293 17.7732 15.5593 17.9382 15.6268C18.1032 15.6943 18.2757 15.7918 18.4632 15.9193L20.9457 17.6818C21.1407 17.8168 21.2757 17.9743 21.3582 18.1618C21.4332 18.3493 21.4782 18.5368 21.4782 18.7468Z" fill="#A639DF"/>
</svg>
