<svg width="35" height="36" viewBox="0 0 35 36" fill="none" xmlns="http://www.w3.org/2000/svg">
<circle cx="17.5005" cy="17.8555" r="17.5" fill="white"/>
<path d="M15.2927 19.254H13.0157C12.6477 19.254 12.5327 19.122 12.5327 18.792V16.13C12.5327 15.778 12.6707 15.668 13.0157 15.668H15.2927V13.732C15.2927 12.852 15.4537 12.016 15.9137 11.246C16.3967 10.454 17.0867 9.92603 17.9607 9.61803C18.5357 9.42003 19.1107 9.33203 19.7317 9.33203H21.9857C22.3077 9.33203 22.4457 9.46403 22.4457 9.77203V12.28C22.4457 12.588 22.3077 12.72 21.9857 12.72C21.3647 12.72 20.7437 12.72 20.1227 12.742C19.5017 12.742 19.1797 13.028 19.1797 13.644C19.1567 14.304 19.1797 14.942 19.1797 15.624H21.8477C22.2157 15.624 22.3537 15.756 22.3537 16.108V18.77C22.3537 19.122 22.2387 19.232 21.8477 19.232H19.1797V26.404C19.1797 26.778 19.0647 26.91 18.6507 26.91H15.7757C15.4307 26.91 15.2927 26.778 15.2927 26.448V19.254Z" fill="#A639DF"/>
</svg>
