<svg width="35" height="36" viewBox="0 0 35 36" fill="none" xmlns="http://www.w3.org/2000/svg">
<circle cx="17.5005" cy="17.8555" r="17.5" fill="white"/>
<g clip-path="url(#clip0_104_3366)">
<path d="M22.7329 12.6875C22.492 12.6875 22.2959 12.8836 22.2959 13.1245C22.2959 13.3654 22.492 13.5615 22.7329 13.5615C22.9738 13.5615 23.1699 13.3655 23.1699 13.1245C23.1699 12.8835 22.9738 12.6875 22.7329 12.6875ZM17.5005 14.4828C15.3644 14.4828 13.6265 16.2207 13.6265 18.3568C13.6265 20.493 15.3644 22.2309 17.5005 22.2309C19.6367 22.2309 21.3747 20.493 21.3747 18.3569C21.3747 16.2207 19.6367 14.4828 17.5005 14.4828Z" fill="#A639DF"/>
<path d="M21.5661 9.35547H13.4349C10.7141 9.35547 8.50049 11.569 8.50049 14.2899V22.421C8.50049 25.1419 10.7141 27.3555 13.4349 27.3555H21.5661C24.2869 27.3555 26.5005 25.1419 26.5005 22.421V14.2899C26.5005 11.569 24.2869 9.35547 21.5661 9.35547ZM17.5005 23.2925C14.7782 23.2925 12.5635 21.0778 12.5635 18.3555C12.5635 15.6331 14.7782 13.4185 17.5005 13.4185C20.2228 13.4185 22.4376 15.6332 22.4376 18.3555C22.4376 21.0778 20.2228 23.2925 17.5005 23.2925ZM22.7328 14.6231C21.9057 14.6231 21.2329 13.9502 21.2329 13.1232C21.2329 12.2961 21.9057 11.6232 22.7328 11.6232C23.5599 11.6232 24.2328 12.296 24.2328 13.1231C24.2328 13.9502 23.5599 14.6231 22.7328 14.6231Z" fill="#A639DF"/>
</g>
<defs>
<clipPath id="clip0_104_3366">
<rect width="18" height="18" fill="white" transform="translate(8.50049 9.35547)"/>
</clipPath>
</defs>
</svg>
