<svg width="35" height="36" viewBox="0 0 35 36" fill="none" xmlns="http://www.w3.org/2000/svg">
<circle cx="17.5005" cy="17.8555" r="17.5" transform="rotate(-90 17.5005 17.8555)" fill="white"/>
<path d="M26.0005 25.8555V19.9955C26.0005 17.1155 25.3805 14.9155 22.0205 14.9155C20.4005 14.9155 19.3205 15.7955 18.8805 16.6355H18.8405V15.1755H15.6605V25.8555H18.9805V20.5555C18.9805 19.1555 19.2405 17.8155 20.9605 17.8155C22.6605 17.8155 22.6805 19.3955 22.6805 20.6355V25.8355H26.0005V25.8555ZM10.2605 15.1755H13.5805V25.8555H10.2605V15.1755ZM11.9205 9.85547C10.8605 9.85547 10.0005 10.7155 10.0005 11.7755C10.0005 12.8355 10.8605 13.7155 11.9205 13.7155C12.9805 13.7155 13.8405 12.8355 13.8405 11.7755C13.8405 10.7155 12.9805 9.85547 11.9205 9.85547Z" fill="#A639DF"/>
</svg>
