<svg width="28" height="28" viewBox="0 0 28 28" fill="none" xmlns="http://www.w3.org/2000/svg">
<circle cx="14.0005" cy="14" r="14" fill="white"/>
<path d="M20.4653 11.3375C19.6778 7.8725 16.6553 6.3125 14.0003 6.3125C14.0003 6.3125 14.0003 6.3125 13.9928 6.3125C11.3453 6.3125 8.31532 7.865 7.52782 11.33C6.65032 15.2 9.02032 18.4775 11.1653 20.54C11.9603 21.305 12.9803 21.6875 14.0003 21.6875C15.0203 21.6875 16.0403 21.305 16.8278 20.54C18.9728 18.4775 21.3428 15.2075 20.4653 11.3375ZM14.0003 15.095C12.6953 15.095 11.6378 14.0375 11.6378 12.7325C11.6378 11.4275 12.6953 10.37 14.0003 10.37C15.3053 10.37 16.3628 11.4275 16.3628 12.7325C16.3628 14.0375 15.3053 15.095 14.0003 15.095Z" fill="#A639DF"/>
</svg>
