<svg width="35" height="36" viewBox="0 0 35 36" fill="none" xmlns="http://www.w3.org/2000/svg">
<circle cx="17.5005" cy="17.8555" r="17.5" transform="rotate(-90 17.5005 17.8555)" fill="white"/>
<path d="M26.6778 11.9058C25.9878 12.2048 25.2748 12.4118 24.5158 12.5038C25.2978 12.0438 25.8958 11.3078 26.1718 10.4108C25.4358 10.8478 24.6308 11.1468 23.7798 11.3308C23.0898 10.5948 22.1008 10.1348 21.0198 10.1348C18.9268 10.1348 17.2478 11.8368 17.2478 13.9068C17.2478 14.2058 17.2708 14.4818 17.3398 14.7578C14.2118 14.6198 11.4518 13.1018 9.58883 10.8248C8.25483 13.2168 9.74983 15.1948 10.7388 15.8618C10.1408 15.8618 9.54283 15.6778 9.03683 15.4018C9.03683 17.2648 10.3478 18.8058 12.0498 19.1508C11.6818 19.2658 10.8538 19.3348 10.3478 19.2198C10.8308 20.7148 12.2338 21.8188 13.8668 21.8418C12.5788 22.8538 10.6928 23.6588 8.27783 23.4058C9.95683 24.4868 11.9348 25.1078 14.0738 25.1078C21.0198 25.1078 24.7918 19.3578 24.7918 14.3898C24.7918 14.2288 24.7918 14.0678 24.7688 13.9068C25.5508 13.3318 26.1948 12.6648 26.6778 11.9058Z" fill="#A639DF"/>
</svg>
