<svg width="55" height="55" viewBox="0 0 55 55" fill="none" xmlns="http://www.w3.org/2000/svg">
<rect x="1" y="1" width="53" height="53" rx="4" fill="white" stroke="#F7ECFC" stroke-width="2"/>
<path d="M35.0312 15.0566C32.095 15.0566 29.4171 16.6634 28 19.0898C26.5829 16.6634 23.905 15.0566 20.9688 15.0566C16.3219 15.0566 13 18.6873 13 23.886C13 28.8393 16.5072 31.5936 22.1918 36.1581C23.7497 37.4086 25.4997 38.8137 27.4301 40.4582L28 40.944L28.5699 40.4582C30.5003 38.8137 32.2504 37.4086 33.8082 36.1581C39.4928 31.5937 43 28.8394 43 23.8861C43 18.6873 39.6781 15.0566 35.0312 15.0566Z" fill="#333333"/>
</svg>
