<svg width="1920" height="998" viewBox="0 0 1920 998" fill="none" xmlns="http://www.w3.org/2000/svg">
<rect width="1920" height="998" fill="#F5FAFE"/>
<path opacity="0.04" d="M350.951 929.425L291 926.4L323.555 876.001L350.951 929.425Z" stroke="url(#paint0_linear_290_3932)" stroke-width="10" stroke-miterlimit="10"/>
<path opacity="0.03" d="M881.773 798.11L857.664 880.615L796.999 812.422L881.773 798.11Z" stroke="url(#paint1_linear_290_3932)" stroke-width="10" stroke-miterlimit="10"/>
<path opacity="0.06" d="M822.779 227.876L813.289 189.955L850.863 200.674L822.779 227.876Z" stroke="url(#paint2_linear_290_3932)" stroke-width="10" stroke-miterlimit="10"/>
<path d="M1235.48 688.098L1173.19 893.086L1381.86 844.547" stroke="#F6E7FF" stroke-miterlimit="10"/>
<path d="M1240.3 683.585L1178.02 888.572L1386.69 840.034" stroke="#F6E7FF" stroke-miterlimit="10"/>
<path d="M1245.15 679.052L1182.84 884.059L1391.53 835.501" stroke="#F6E7FF" stroke-miterlimit="10"/>
<path d="M1249.97 674.539L1187.66 879.545L1396.35 830.988" stroke="#F6E7FF" stroke-miterlimit="10"/>
<path d="M1254.79 670.025L1192.49 875.031L1401.18 826.474" stroke="#F6E7FF" stroke-miterlimit="10"/>
<path d="M1259.62 665.513L1197.31 870.52L1406 821.962" stroke="#F6E7FF" stroke-miterlimit="10"/>
<path d="M1264.44 661L1202.13 866.006L1410.83 817.449" stroke="#F6E7FF" stroke-miterlimit="10"/>
<g filter="url(#filter0_f_290_3932)">
<circle cx="90" cy="174" r="84" fill="#A639DF"/>
</g>
<circle opacity="0.07" cx="1533" cy="227" r="358" fill="url(#paint3_linear_290_3932)"/>
<path opacity="0.07" d="M1931 227C2265 372 1866.5 822 1573 585C1375.28 585 1215 424.718 1215 227C1215 29.2821 1375.28 -131 1573 -131C1770.72 -131 1931 29.2821 1931 227Z" fill="url(#paint4_linear_290_3932)"/>
<path opacity="0.04" d="M1971 227C1971 424.718 2122 685 1679 735C1481.28 735 1255 424.718 1255 227C1255 29.2821 1415.28 -131 1613 -131C1810.72 -131 1971 29.2821 1971 227Z" fill="url(#paint5_linear_290_3932)"/>
<defs>
<filter id="filter0_f_290_3932" x="-470" y="-386" width="1120" height="1120" filterUnits="userSpaceOnUse" color-interpolation-filters="sRGB">
<feFlood flood-opacity="0" result="BackgroundImageFix"/>
<feBlend mode="normal" in="SourceGraphic" in2="BackgroundImageFix" result="shape"/>
<feGaussianBlur stdDeviation="238" result="effect1_foregroundBlur_290_3932"/>
</filter>
<linearGradient id="paint0_linear_290_3932" x1="307.278" y1="901.2" x2="350.958" y2="929.415" gradientUnits="userSpaceOnUse">
<stop stop-color="#A93DE1"/>
<stop offset="1" stop-color="#B659E9" stop-opacity="0.29"/>
</linearGradient>
<linearGradient id="paint1_linear_290_3932" x1="827.331" y1="846.519" x2="881.762" y2="798.097" gradientUnits="userSpaceOnUse">
<stop stop-color="#A93DE1"/>
<stop offset="1" stop-color="#B659E9" stop-opacity="0.29"/>
</linearGradient>
<linearGradient id="paint2_linear_290_3932" x1="832.076" y1="195.315" x2="822.786" y2="227.878" gradientUnits="userSpaceOnUse">
<stop stop-color="#A93DE1"/>
<stop offset="1" stop-color="#B659E9" stop-opacity="0.29"/>
</linearGradient>
<linearGradient id="paint3_linear_290_3932" x1="1199" y1="132" x2="1837.5" y2="478" gradientUnits="userSpaceOnUse">
<stop stop-color="#BF6EEE" stop-opacity="0.67"/>
<stop offset="1" stop-color="#BF6EEE" stop-opacity="0"/>
</linearGradient>
<linearGradient id="paint4_linear_290_3932" x1="1277.5" y1="119.5" x2="1794" y2="492" gradientUnits="userSpaceOnUse">
<stop stop-color="#BF6EEE"/>
<stop offset="1" stop-color="#BF6EEE" stop-opacity="0.42"/>
</linearGradient>
<linearGradient id="paint5_linear_290_3932" x1="1309.5" y1="106.5" x2="1793.5" y2="477.5" gradientUnits="userSpaceOnUse">
<stop stop-color="#BF6EEE"/>
<stop offset="1" stop-color="#BF6EEE"/>
</linearGradient>
</defs>
</svg>
