<svg width="22" height="22" viewBox="0 0 22 22" fill="none" xmlns="http://www.w3.org/2000/svg">
<path fill-rule="evenodd" clip-rule="evenodd" d="M4.08368 3.39603C3.89056 3.58939 3.78209 3.8515 3.78209 4.12478C3.78209 4.39806 3.89056 4.66017 4.08368 4.85353L10.2286 10.9998L4.0823 17.146C3.89454 17.3406 3.79072 17.6012 3.7932 17.8716C3.79567 18.1419 3.90425 18.4005 4.09554 18.5917C4.28684 18.7828 4.54554 18.8911 4.81593 18.8933C5.08633 18.8955 5.34677 18.7915 5.54118 18.6035L12.4162 11.7285C12.6093 11.5352 12.7178 11.2731 12.7178 10.9998C12.7178 10.7265 12.6093 10.4644 12.4162 10.271L5.54118 3.39603C5.44541 3.3002 5.3317 3.22418 5.20654 3.17231C5.08138 3.12045 4.94722 3.09375 4.81174 3.09375C4.67626 3.09375 4.54211 3.12045 4.41695 3.17231C4.29179 3.22418 4.17807 3.3002 4.0823 3.39603H4.08368Z" fill="#A639DF"/>
<path fill-rule="evenodd" clip-rule="evenodd" d="M10.9587 3.39603C10.7656 3.58939 10.6571 3.8515 10.6571 4.12478C10.6571 4.39806 10.7656 4.66017 10.9587 4.85353L17.1036 10.9998L10.9573 17.146C10.7695 17.3406 10.6657 17.6012 10.6682 17.8716C10.6707 18.1419 10.7793 18.4005 10.9705 18.5917C11.1618 18.7828 11.4205 18.8911 11.6909 18.8933C11.9613 18.8955 12.2218 18.7915 12.4162 18.6035L19.2912 11.7285C19.4843 11.5352 19.5928 11.2731 19.5928 10.9998C19.5928 10.7265 19.4843 10.4644 19.2912 10.271L12.4162 3.39603C12.3204 3.3002 12.2067 3.22418 12.0815 3.17231C11.9564 3.12045 11.8222 3.09375 11.6867 3.09375C11.5513 3.09375 11.4171 3.12045 11.2919 3.17231C11.1668 3.22418 11.0531 3.3002 10.9573 3.39603H10.9587Z" fill="#A639DF"/>
</svg>
