<svg width="47" height="46" viewBox="0 0 47 46" fill="none" xmlns="http://www.w3.org/2000/svg">
<circle opacity="0.1" cx="23.5" cy="23" r="23" fill="#B350E6"/>
<g clip-path="url(#clip0_104_1595)">
<path d="M23.5 11C20.6265 11 18.2895 13.338 18.2895 16.212C18.2895 19.087 20.627 21.4255 23.5 21.4255C26.373 21.4255 28.711 19.087 28.711 16.212C28.711 13.338 26.373 11 23.5 11ZM27.5265 22.8965C27.712 23.699 28.005 25.158 27.9075 26.004C28.674 26.6835 30.685 28.6865 30.2475 30.663C30.2445 30.6865 30.0375 31.823 28.6275 32.3055C28.5654 32.3271 28.4997 32.3362 28.434 32.3322C28.3684 32.3282 28.3042 32.3112 28.2452 32.2822C28.1862 32.2532 28.1335 32.2129 28.0902 32.1634C28.0469 32.1139 28.0139 32.0563 27.993 31.994C27.9717 31.9319 27.9628 31.8661 27.9669 31.8005C27.9711 31.735 27.9881 31.6709 28.017 31.6119C28.0459 31.5529 28.0862 31.5002 28.1356 31.4568C28.1849 31.4134 28.2423 31.3802 28.3045 31.359C29.1435 31.072 29.2655 30.477 29.2675 30.4715C29.5665 29.116 28.0665 27.4705 27.2325 26.739C26.2345 27.2235 24.3475 28.412 24.2745 29.773C24.2715 29.815 24.2405 30.4175 24.962 30.9085C25.0717 30.9831 25.1473 31.0982 25.1722 31.2286C25.197 31.3589 25.1691 31.4938 25.0945 31.6035C25.0199 31.7132 24.9048 31.7888 24.7744 31.8137C24.6441 31.8385 24.5092 31.8106 24.3995 31.736C23.166 30.897 23.2725 29.743 23.277 29.694C23.3905 27.5815 26.1515 26.142 26.922 25.78C26.968 25.03 26.6565 23.481 26.427 22.606C26.42 22.5785 26.425 22.552 26.422 22.5245C25.6791 22.3192 24.9122 22.2139 24.1415 22.2115H22.858C21.973 22.2115 21.119 22.3465 20.3135 22.593C20.305 22.6285 20.303 22.6655 20.2855 22.7C20.2745 22.7225 19.192 24.9695 18.6745 28.406C19.544 28.646 20.188 29.4355 20.188 30.3795C20.1873 30.9242 19.9707 31.4464 19.5855 31.8315C19.2004 32.2167 18.6782 32.4333 18.1335 32.434C17.5887 32.4335 17.0663 32.2169 16.681 31.8317C16.2957 31.4466 16.0788 30.9243 16.078 30.3795C16.078 29.408 16.7585 28.5955 17.667 28.3835C18.0185 25.9625 18.6315 24.119 19.0235 23.113C16.1395 24.535 14.1455 27.4985 14.1455 30.9265V34.5C14.1455 34.6326 14.1982 34.7598 14.292 34.8536C14.3857 34.9473 14.5129 35 14.6455 35H32.3565C32.633 35 32.8565 34.7695 32.8565 34.493V30.9265C32.8555 27.3215 30.6555 24.2205 27.5265 22.8965Z" fill="#333333"/>
</g>
<defs>
<clipPath id="clip0_104_1595">
<rect width="24" height="24" fill="white" transform="translate(11.5 11)"/>
</clipPath>
</defs>
</svg>
