<svg width="17" height="17" viewBox="0 0 17 17" fill="none" xmlns="http://www.w3.org/2000/svg">
<g clip-path="url(#clip0_104_3255)">
<path d="M-0.100451 7.50259L-0.100451 7.40259L-0.000450465 7.40259L13.9344 7.40259L10.911 4.39948L10.8395 4.32853L10.911 4.25758L11.6291 3.54428L11.6996 3.47429L11.77 3.54428L16.1916 7.93599L16.263 8.00694L16.1916 8.07789L11.77 12.4697L11.6996 12.5397L11.6291 12.4697L10.911 11.7563L10.8395 11.6854L10.911 11.6144L13.9344 8.61135L-0.000450571 8.61135L-0.100451 8.61135L-0.100451 8.51135L-0.100451 7.50259Z" fill="#A639DF" stroke="#A639DF" stroke-width="0.2"/>
</g>
<defs>
<clipPath id="clip0_104_3255">
<rect width="16.0129" height="16.0129" fill="white" transform="matrix(-1 -8.74228e-08 -8.74228e-08 1 16.0127 0)"/>
</clipPath>
</defs>
</svg>
