<svg width="94" height="94" viewBox="0 0 94 94" fill="none" xmlns="http://www.w3.org/2000/svg">
<g filter="url(#filter0_d_104_1571)">
<circle cx="47" cy="47" r="17" fill="white"/>
</g>
<path d="M53.975 47.1719H51.365C50.63 47.1719 49.9775 47.5769 49.6475 48.2369L49.0175 49.4819C48.8675 49.7819 48.5675 49.9694 48.2375 49.9694H45.7775C45.545 49.9694 45.215 49.9169 44.9975 49.4819L44.3675 48.2444C44.0375 47.5919 43.3775 47.1794 42.65 47.1794H40.025C39.7325 47.1794 39.5 47.4119 39.5 47.7044V50.1494C39.5 52.8719 41.135 54.4994 43.865 54.4994H50.15C52.7225 54.4994 54.305 53.0894 54.5 50.5844V47.6969C54.5 47.4119 54.2675 47.1719 53.975 47.1719Z" fill="#333333"/>
<path d="M54.5 43.8575V46.1375C54.335 46.0775 54.155 46.0475 53.975 46.0475H51.365C50.2025 46.0475 49.16 46.6925 48.6425 47.7275L48.08 48.8375H45.935L45.3725 47.735C44.855 46.6925 43.8125 46.0475 42.65 46.0475H40.025C39.845 46.0475 39.665 46.0775 39.5 46.1375V43.8575C39.5 41.1275 41.1275 39.5 43.8575 39.5H50.1425C52.8725 39.5 54.5 41.1275 54.5 43.8575Z" fill="#333333"/>
<defs>
<filter id="filter0_d_104_1571" x="0" y="0" width="94" height="94" filterUnits="userSpaceOnUse" color-interpolation-filters="sRGB">
<feFlood flood-opacity="0" result="BackgroundImageFix"/>
<feColorMatrix in="SourceAlpha" type="matrix" values="0 0 0 0 0 0 0 0 0 0 0 0 0 0 0 0 0 0 127 0" result="hardAlpha"/>
<feOffset/>
<feGaussianBlur stdDeviation="15"/>
<feComposite in2="hardAlpha" operator="out"/>
<feColorMatrix type="matrix" values="0 0 0 0 0 0 0 0 0 0 0 0 0 0 0 0 0 0 0.06 0"/>
<feBlend mode="normal" in2="BackgroundImageFix" result="effect1_dropShadow_104_1571"/>
<feBlend mode="normal" in="SourceGraphic" in2="effect1_dropShadow_104_1571" result="shape"/>
</filter>
</defs>
</svg>
