<svg width="55" height="55" viewBox="0 0 55 55" fill="none" xmlns="http://www.w3.org/2000/svg">
<rect x="1" y="1" width="53" height="53" rx="4" fill="white" stroke="#F7ECFC" stroke-width="2"/>
<g clip-path="url(#clip0_104_1640)">
<path d="M29.9913 12.0054C29.4758 11.9514 29.008 12.3066 28.9448 12.8193C28.8808 13.3338 29.2452 13.8017 29.7587 13.8657C31.0313 14.0241 32.2746 14.4747 33.4547 14.9727C33.9371 15.1731 34.4832 14.9471 34.6833 14.4729C34.8838 13.995 34.6605 13.4456 34.1835 13.2442C32.844 12.6802 31.4332 12.1849 29.9913 12.0054ZM40.518 19.619C40.9309 19.3059 41.0115 18.7172 40.6984 18.3052C39.8202 17.1488 38.7887 16.1173 37.6323 15.2391C37.2194 14.9279 36.6325 15.0057 36.3185 15.4195C36.0053 15.8315 36.0859 16.4202 36.4988 16.7333C37.5195 17.5078 38.4297 18.418 39.2042 19.4387C39.5183 19.8524 40.1061 19.9307 40.518 19.619ZM41.4646 21.2542C40.9876 21.4556 40.7643 22.0049 40.9648 22.4828C41.4628 23.6629 41.9739 24.9687 42.1323 26.2413C42.1938 26.7385 42.6434 27.1175 43.1788 27.0551C43.6924 26.9911 44.0568 26.5232 43.9926 26.0087C43.8132 24.5668 43.2572 23.0934 42.6933 21.754C42.4919 21.277 41.9416 21.0564 41.4646 21.2542ZM21.8165 13.2442C21.3395 13.4457 21.1162 13.995 21.3167 14.4729C21.5172 14.9481 22.0641 15.1727 22.5453 14.9727C23.7254 14.4747 24.9687 14.0241 26.2413 13.8657C26.7549 13.8017 27.1193 13.3338 27.0552 12.8193C26.9911 12.3066 26.5214 11.9514 26.0087 12.0054C24.5668 12.1849 23.156 12.6802 21.8165 13.2442ZM28 44C36.0236 44 43.0011 37.9417 43.9926 29.9913C44.0567 29.4776 43.6923 29.0089 43.1788 28.9448C42.6624 28.8871 42.1955 29.2451 42.1323 29.7587C41.2571 36.7735 35.0798 42.125 28 42.125C20.2455 42.125 13.875 35.7545 13.875 28C13.875 24.5823 15.2311 21.2563 17.4375 18.716V19.0264C17.4375 19.5446 17.8568 19.9639 18.375 19.9639C18.8932 19.9639 19.3125 19.5446 19.3125 19.0264V16.375C19.3125 15.8569 18.8932 15.4375 18.375 15.4375H15.7227C15.2046 15.4375 14.7852 15.8569 14.7852 16.375C14.7852 16.8932 15.2046 17.3119 15.7227 17.3119H16.1742C13.5774 20.2155 12 24.0471 12 28C12 36.7881 19.2119 44 28 44Z" fill="#333333"/>
<path d="M16.6875 28C16.6875 34.2036 21.7964 39.3125 28 39.3125C34.2036 39.3125 39.3125 34.2036 39.3125 28C39.3125 21.7964 34.2036 16.6875 28 16.6875C21.7964 16.6875 16.6875 21.7964 16.6875 28ZM28.9375 24.25C28.9375 23.7318 29.3568 23.3125 29.875 23.3125C30.3932 23.3125 30.8125 23.7318 30.8125 24.25V27.0625H32.6875V24.25C32.6875 23.7318 33.1068 23.3125 33.625 23.3125C34.1432 23.3125 34.5625 23.7318 34.5625 24.25V31.75C34.5625 32.2682 34.1432 32.6875 33.625 32.6875C33.1068 32.6875 32.6875 32.2682 32.6875 31.75V28.9375H29.875C29.3568 28.9375 28.9375 28.5182 28.9375 28V24.25ZM24.25 25.1875C23.7327 25.1875 23.3125 25.6077 23.3125 26.125C23.3125 26.6432 22.8932 27.0625 22.375 27.0625C21.8568 27.0625 21.4375 26.6432 21.4375 26.125C21.4375 24.5741 22.6991 23.3125 24.25 23.3125C25.8009 23.3125 27.0625 24.5741 27.0625 26.125C27.0625 28 25.8146 28.9357 24.8121 29.6873C24.2568 30.1041 23.8612 30.4375 23.6101 30.8125H26.125C26.6432 30.8125 27.0625 31.2318 27.0625 31.75C27.0625 32.2682 26.6432 32.6875 26.125 32.6875H22.375C21.8568 32.6875 21.4375 32.2682 21.4375 31.75C21.4375 29.875 22.6854 28.9393 23.6879 28.1877C24.6456 27.469 25.1875 27.0186 25.1875 26.125C25.1875 25.6077 24.7673 25.1875 24.25 25.1875Z" fill="#333333"/>
</g>
<defs>
<clipPath id="clip0_104_1640">
<rect width="32" height="32" fill="white" transform="translate(12 12)"/>
</clipPath>
</defs>
</svg>
